<svg width="61" height="75" viewBox="0 0 61 75" fill="none" xmlns="http://www.w3.org/2000/svg">
<path d="M9.5 72.5C7.64348 72.5 5.86301 71.7625 4.55025 70.4498C3.2375 69.137 2.5 67.3565 2.5 65.5V9.50001C2.5 7.6435 3.2375 5.86302 4.55025 4.55026C5.86301 3.23751 7.64348 2.50001 9.5 2.50001H37.5C38.6079 2.49822 39.7053 2.71562 40.7289 3.1397C41.7524 3.56378 42.682 4.18617 43.464 4.97101L56.022 17.529C56.8089 18.3113 57.4331 19.2417 57.8584 20.2666C58.2837 21.2914 58.5018 22.3904 58.5 23.5V65.5C58.5 67.3565 57.7625 69.137 56.4497 70.4498C55.137 71.7625 53.3565 72.5 51.5 72.5H9.5Z" stroke="#DD2B1C" stroke-width="5" stroke-linecap="round" stroke-linejoin="round"/>
<path d="M37.5 2.5V20C37.5 20.9283 37.8687 21.8185 38.5251 22.4749C39.1815 23.1313 40.0717 23.5 41 23.5H58.5M23.5 27H16.5M44.5 41H16.5M44.5 55H16.5" stroke="#DD2B1C" stroke-width="5" stroke-linecap="round" stroke-linejoin="round"/>
</svg>
