<svg width="176" height="217" viewBox="0 0 176 217" fill="none" xmlns="http://www.w3.org/2000/svg">
<path d="M26.8333 209.833C21.4406 209.833 16.2687 207.691 12.4555 203.878C8.64225 200.065 6.5 194.893 6.5 189.5V26.8334C6.5 21.4406 8.64225 16.2688 12.4555 12.4555C16.2687 8.64229 21.4406 6.50003 26.8333 6.50003H108.167C111.385 6.49482 114.573 7.12632 117.546 8.35818C120.519 9.59004 123.219 11.3979 125.491 13.6777L161.969 50.1557C164.255 52.428 166.068 55.1307 167.303 58.1077C168.539 61.0846 169.172 64.2769 169.167 67.5V189.5C169.167 194.893 167.024 200.065 163.211 203.878C159.398 207.691 154.226 209.833 148.833 209.833H26.8333Z" stroke="#DD2B1C" stroke-opacity="0.1" stroke-width="13" stroke-linecap="round" stroke-linejoin="round"/>
<path d="M108.167 6.5V57.3333C108.167 60.0297 109.238 62.6156 111.145 64.5223C113.051 66.4289 115.637 67.5 118.334 67.5H169.167M67.5003 77.6667H47.167M128.5 118.333H47.167M128.5 159H47.167" stroke="#DD2B1C" stroke-opacity="0.1" stroke-width="13" stroke-linecap="round" stroke-linejoin="round"/>
</svg>
