<svg width="237" height="244" viewBox="0 0 237 244" fill="none" xmlns="http://www.w3.org/2000/svg">
<path d="M30.5 221.125H53.375V244H30.5C13.6773 244 0 230.323 0 213.5V30.5C0 13.6773 13.6773 0 30.5 0H109.371C117.473 0 125.241 3.19297 130.959 8.91172L174.088 52.0406C179.807 57.7594 183 65.5273 183 73.6289V144.875H160.125V76.25H122C113.565 76.25 106.75 69.4352 106.75 61V22.875H30.5C26.3062 22.875 22.875 26.3062 22.875 30.5V213.5C22.875 217.694 26.3062 221.125 30.5 221.125ZM83.875 167.75H99.125C113.851 167.75 125.812 179.712 125.812 194.438C125.812 209.163 113.851 221.125 99.125 221.125H91.5V236.375C91.5 240.569 88.0687 244 83.875 244C79.6813 244 76.25 240.569 76.25 236.375V175.375C76.25 171.181 79.6813 167.75 83.875 167.75ZM99.125 205.875C105.463 205.875 110.562 200.776 110.562 194.438C110.562 188.099 105.463 183 99.125 183H91.5V205.875H99.125ZM144.875 167.75H160.125C172.754 167.75 183 177.996 183 190.625V221.125C183 233.754 172.754 244 160.125 244H144.875C140.681 244 137.25 240.569 137.25 236.375V175.375C137.25 171.181 140.681 167.75 144.875 167.75ZM160.125 228.75C164.319 228.75 167.75 225.319 167.75 221.125V190.625C167.75 186.431 164.319 183 160.125 183H152.5V228.75H160.125ZM198.25 175.375C198.25 171.181 201.681 167.75 205.875 167.75H228.75C232.944 167.75 236.375 171.181 236.375 175.375C236.375 179.569 232.944 183 228.75 183H213.5V198.25H228.75C232.944 198.25 236.375 201.681 236.375 205.875C236.375 210.069 232.944 213.5 228.75 213.5H213.5V236.375C213.5 240.569 210.069 244 205.875 244C201.681 244 198.25 240.569 198.25 236.375V175.375Z" fill="#DD2B1C" fill-opacity="0.1"/>
</svg>
