<svg width="82" height="84" viewBox="0 0 82 84" fill="none" xmlns="http://www.w3.org/2000/svg">
<path d="M10.5 76.125H18.375V84H10.5C4.70859 84 0 79.2914 0 73.5V10.5C0 4.70859 4.70859 0 10.5 0H37.6523C40.4414 0 43.1156 1.09922 45.0844 3.06797L59.932 17.9156C61.9008 19.8844 63 22.5586 63 25.3477V49.875H55.125V26.25H42C39.0961 26.25 36.75 23.9039 36.75 21V7.875H10.5C9.05625 7.875 7.875 9.05625 7.875 10.5V73.5C7.875 74.9437 9.05625 76.125 10.5 76.125ZM28.875 57.75H34.125C39.1945 57.75 43.3125 61.868 43.3125 66.9375C43.3125 72.007 39.1945 76.125 34.125 76.125H31.5V81.375C31.5 82.8187 30.3188 84 28.875 84C27.4312 84 26.25 82.8187 26.25 81.375V60.375C26.25 58.9313 27.4312 57.75 28.875 57.75ZM34.125 70.875C36.307 70.875 38.0625 69.1195 38.0625 66.9375C38.0625 64.7555 36.307 63 34.125 63H31.5V70.875H34.125ZM49.875 57.75H55.125C59.4727 57.75 63 61.2773 63 65.625V76.125C63 80.4727 59.4727 84 55.125 84H49.875C48.4313 84 47.25 82.8187 47.25 81.375V60.375C47.25 58.9313 48.4313 57.75 49.875 57.75ZM55.125 78.75C56.5687 78.75 57.75 77.5687 57.75 76.125V65.625C57.75 64.1813 56.5687 63 55.125 63H52.5V78.75H55.125ZM68.25 60.375C68.25 58.9313 69.4313 57.75 70.875 57.75H78.75C80.1937 57.75 81.375 58.9313 81.375 60.375C81.375 61.8187 80.1937 63 78.75 63H73.5V68.25H78.75C80.1937 68.25 81.375 69.4313 81.375 70.875C81.375 72.3187 80.1937 73.5 78.75 73.5H73.5V81.375C73.5 82.8187 72.3187 84 70.875 84C69.4313 84 68.25 82.8187 68.25 81.375V60.375Z" fill="#DD2B1C"/>
</svg>
