<svg width="66" height="66" viewBox="0 0 66 66" fill="none" xmlns="http://www.w3.org/2000/svg">
<path d="M11.25 0C8.26631 0 5.40483 1.18526 3.29505 3.29505C1.18526 5.40483 0 8.26631 0 11.25V54.75C0 57.7337 1.18526 60.5952 3.29505 62.705C5.40483 64.8147 8.26631 66 11.25 66H54.75C57.7337 66 60.5952 64.8147 62.705 62.705C64.8147 60.5952 66 57.7337 66 54.75V11.25C66 8.26631 64.8147 5.40483 62.705 3.29505C60.5952 1.18526 57.7337 0 54.75 0H11.25ZM4.5 11.25C4.5 9.45979 5.21116 7.7429 6.47703 6.47703C7.7429 5.21116 9.45979 4.5 11.25 4.5H54.75C56.5402 4.5 58.2571 5.21116 59.523 6.47703C60.7888 7.7429 61.5 9.45979 61.5 11.25V54.75C61.5 56.5402 60.7888 58.2571 59.523 59.523C58.2571 60.7888 56.5402 61.5 54.75 61.5H11.25C9.45979 61.5 7.7429 60.7888 6.47703 59.523C5.21116 58.2571 4.5 56.5402 4.5 54.75V11.25ZM9 18C9 16.4087 9.63214 14.8826 10.7574 13.7574C11.8826 12.6321 13.4087 12 15 12H51C52.5913 12 54.1174 12.6321 55.2426 13.7574C56.3679 14.8826 57 16.4087 57 18V24C57 25.5913 56.3679 27.1174 55.2426 28.2426C54.1174 29.3679 52.5913 30 51 30H15C13.4087 30 11.8826 29.3679 10.7574 28.2426C9.63214 27.1174 9 25.5913 9 24V18ZM15 16.5C14.6022 16.5 14.2206 16.658 13.9393 16.9393C13.658 17.2206 13.5 17.6022 13.5 18V24C13.5 24.3978 13.658 24.7794 13.9393 25.0607C14.2206 25.342 14.6022 25.5 15 25.5H51C51.3978 25.5 51.7794 25.342 52.0607 25.0607C52.342 24.7794 52.5 24.3978 52.5 24V18C52.5 17.6022 52.342 17.2206 52.0607 16.9393C51.7794 16.658 51.3978 16.5 51 16.5H15ZM9 38.25C9 37.6533 9.23705 37.081 9.65901 36.659C10.081 36.2371 10.6533 36 11.25 36H27.75C28.3467 36 28.919 36.2371 29.341 36.659C29.7629 37.081 30 37.6533 30 38.25C30 38.8467 29.7629 39.419 29.341 39.841C28.919 40.2629 28.3467 40.5 27.75 40.5H11.25C10.6533 40.5 10.081 40.2629 9.65901 39.841C9.23705 39.419 9 38.8467 9 38.25ZM11.25 47.25C10.6533 47.25 10.081 47.4871 9.65901 47.909C9.23705 48.331 9 48.9033 9 49.5C9 50.0967 9.23705 50.669 9.65901 51.091C10.081 51.5129 10.6533 51.75 11.25 51.75H27.75C28.3467 51.75 28.919 51.5129 29.341 51.091C29.7629 50.669 30 50.0967 30 49.5C30 48.9033 29.7629 48.331 29.341 47.909C28.919 47.4871 28.3467 47.25 27.75 47.25H11.25ZM37.5 39.75C37.5 36.852 39.852 34.5 42.75 34.5H51.75C54.648 34.5 57 36.852 57 39.75V48.75C57 50.1424 56.4469 51.4777 55.4623 52.4623C54.4777 53.4469 53.1424 54 51.75 54H42.75C41.3576 54 40.0223 53.4469 39.0377 52.4623C38.0531 51.4777 37.5 50.1424 37.5 48.75V39.75ZM42.75 39C42.5511 39 42.3603 39.079 42.2197 39.2197C42.079 39.3603 42 39.5511 42 39.75V48.75C42 49.164 42.336 49.5 42.75 49.5H51.75C51.9489 49.5 52.1397 49.421 52.2803 49.2803C52.421 49.1397 52.5 48.9489 52.5 48.75V39.75C52.5 39.5511 52.421 39.3603 52.2803 39.2197C52.1397 39.079 51.9489 39 51.75 39H42.75Z" fill="#DD2B1C"/>
</svg>
