<svg width="192" height="192" viewBox="0 0 192 192" fill="none" xmlns="http://www.w3.org/2000/svg">
<path d="M32.6786 0C24.0117 0 15.6998 3.44291 9.57133 9.57133C3.44291 15.6998 0 24.0117 0 32.6786V159.036C0 167.703 3.44291 176.015 9.57133 182.143C15.6998 188.271 24.0117 191.714 32.6786 191.714H159.036C167.703 191.714 176.015 188.271 182.143 182.143C188.271 176.015 191.714 167.703 191.714 159.036V32.6786C191.714 24.0117 188.271 15.6998 182.143 9.57133C176.015 3.44291 167.703 0 159.036 0H32.6786ZM13.0714 32.6786C13.0714 27.4784 15.1372 22.4913 18.8142 18.8142C22.4913 15.1372 27.4784 13.0714 32.6786 13.0714H159.036C164.236 13.0714 169.223 15.1372 172.9 18.8142C176.577 22.4913 178.643 27.4784 178.643 32.6786V159.036C178.643 164.236 176.577 169.223 172.9 172.9C169.223 176.577 164.236 178.643 159.036 178.643H32.6786C27.4784 178.643 22.4913 176.577 18.8142 172.9C15.1372 169.223 13.0714 164.236 13.0714 159.036V32.6786ZM26.1429 52.2857C26.1429 47.6634 27.9791 43.2303 31.2476 39.9619C34.5161 36.6934 38.9491 34.8571 43.5714 34.8571H148.143C152.765 34.8571 157.198 36.6934 160.467 39.9619C163.735 43.2303 165.571 47.6634 165.571 52.2857V69.7143C165.571 74.3366 163.735 78.7697 160.467 82.0381C157.198 85.3066 152.765 87.1429 148.143 87.1429H43.5714C38.9491 87.1429 34.5161 85.3066 31.2476 82.0381C27.9791 78.7697 26.1429 74.3366 26.1429 69.7143V52.2857ZM43.5714 47.9286C42.4158 47.9286 41.3076 48.3876 40.4905 49.2047C39.6733 50.0219 39.2143 51.1301 39.2143 52.2857V69.7143C39.2143 70.8699 39.6733 71.9781 40.4905 72.7953C41.3076 73.6124 42.4158 74.0714 43.5714 74.0714H148.143C149.298 74.0714 150.407 73.6124 151.224 72.7953C152.041 71.9781 152.5 70.8699 152.5 69.7143V52.2857C152.5 51.1301 152.041 50.0219 151.224 49.2047C150.407 48.3876 149.298 47.9286 148.143 47.9286H43.5714ZM26.1429 111.107C26.1429 109.374 26.8314 107.711 28.0571 106.486C29.2828 105.26 30.9452 104.571 32.6786 104.571H80.6071C82.3405 104.571 84.0029 105.26 85.2286 106.486C86.4543 107.711 87.1429 109.374 87.1429 111.107C87.1429 112.841 86.4543 114.503 85.2286 115.729C84.0029 116.954 82.3405 117.643 80.6071 117.643H32.6786C30.9452 117.643 29.2828 116.954 28.0571 115.729C26.8314 114.503 26.1429 112.841 26.1429 111.107ZM32.6786 137.25C30.9452 137.25 29.2828 137.939 28.0571 139.164C26.8314 140.39 26.1429 142.052 26.1429 143.786C26.1429 145.519 26.8314 147.181 28.0571 148.407C29.2828 149.633 30.9452 150.321 32.6786 150.321H80.6071C82.3405 150.321 84.0029 149.633 85.2286 148.407C86.4543 147.181 87.1429 145.519 87.1429 143.786C87.1429 142.052 86.4543 140.39 85.2286 139.164C84.0029 137.939 82.3405 137.25 80.6071 137.25H32.6786ZM108.929 115.464C108.929 107.046 115.761 100.214 124.179 100.214H150.321C158.739 100.214 165.571 107.046 165.571 115.464V141.607C165.571 145.652 163.965 149.531 161.105 152.391C158.245 155.25 154.366 156.857 150.321 156.857H124.179C120.134 156.857 116.255 155.25 113.395 152.391C110.535 149.531 108.929 145.652 108.929 141.607V115.464ZM124.179 113.286C123.601 113.286 123.047 113.515 122.638 113.924C122.23 114.332 122 114.886 122 115.464V141.607C122 142.81 122.976 143.786 124.179 143.786H150.321C150.899 143.786 151.453 143.556 151.862 143.148C152.27 142.739 152.5 142.185 152.5 141.607V115.464C152.5 114.886 152.27 114.332 151.862 113.924C151.453 113.515 150.899 113.286 150.321 113.286H124.179Z" fill="#DD2B1C" fill-opacity="0.1"/>
</svg>
