<svg width="67" height="70" viewBox="0 0 67 70" fill="none" xmlns="http://www.w3.org/2000/svg">
<path d="M49 7C48.0717 7 47.1815 6.63125 46.5251 5.97487C45.8687 5.3185 45.5 4.42826 45.5 3.5C45.5 2.57174 45.8687 1.6815 46.5251 1.02513C47.1815 0.368749 48.0717 0 49 0H63C63.9283 0 64.8185 0.368749 65.4749 1.02513C66.1313 1.6815 66.5 2.57174 66.5 3.5V17.5C66.5 18.4283 66.1313 19.3185 65.4749 19.9749C64.8185 20.6313 63.9283 21 63 21C62.0717 21 61.1815 20.6313 60.5251 19.9749C59.8687 19.3185 59.5 18.4283 59.5 17.5V11.949L39.2245 32.2245C38.5682 32.8806 37.6781 33.2493 36.75 33.2493C35.8219 33.2493 34.9318 32.8806 34.2755 32.2245L24.5 22.449L5.9745 40.9745C5.31439 41.6121 4.43028 41.9648 3.5126 41.9569C2.59491 41.9489 1.71706 41.5808 1.06814 40.9319C0.419207 40.2829 0.0511155 39.4051 0.043141 38.4874C0.0351665 37.5697 0.387947 36.6856 1.0255 36.0255L22.0255 15.0255C22.6818 14.3694 23.5719 14.0007 24.5 14.0007C25.4281 14.0007 26.3182 14.3694 26.9745 15.0255L36.75 24.801L54.551 7H49ZM7 56V66.5C7 67.4283 6.63125 68.3185 5.97487 68.9749C5.3185 69.6313 4.42826 70 3.5 70C2.57174 70 1.6815 69.6313 1.02513 68.9749C0.368749 68.3185 0 67.4283 0 66.5V56C0 55.0717 0.368749 54.1815 1.02513 53.5251C1.6815 52.8687 2.57174 52.5 3.5 52.5C4.42826 52.5 5.3185 52.8687 5.97487 53.5251C6.63125 54.1815 7 55.0717 7 56ZM24.5 42C24.5 41.0717 24.1313 40.1815 23.4749 39.5251C22.8185 38.8688 21.9283 38.5 21 38.5C20.0717 38.5 19.1815 38.8688 18.5251 39.5251C17.8687 40.1815 17.5 41.0717 17.5 42V66.5C17.5 67.4283 17.8687 68.3185 18.5251 68.9749C19.1815 69.6313 20.0717 70 21 70C21.9283 70 22.8185 69.6313 23.4749 68.9749C24.1313 68.3185 24.5 67.4283 24.5 66.5V42ZM38.5 45.5C39.4283 45.5 40.3185 45.8688 40.9749 46.5251C41.6312 47.1815 42 48.0717 42 49V66.5C42 67.4283 41.6312 68.3185 40.9749 68.9749C40.3185 69.6313 39.4283 70 38.5 70C37.5717 70 36.6815 69.6313 36.0251 68.9749C35.3688 68.3185 35 67.4283 35 66.5V49C35 48.0717 35.3688 47.1815 36.0251 46.5251C36.6815 45.8688 37.5717 45.5 38.5 45.5ZM59.5 31.5C59.5 30.5717 59.1313 29.6815 58.4749 29.0251C57.8185 28.3687 56.9283 28 56 28C55.0717 28 54.1815 28.3687 53.5251 29.0251C52.8687 29.6815 52.5 30.5717 52.5 31.5V66.5C52.5 67.4283 52.8687 68.3185 53.5251 68.9749C54.1815 69.6313 55.0717 70 56 70C56.9283 70 57.8185 69.6313 58.4749 68.9749C59.1313 68.3185 59.5 67.4283 59.5 66.5V31.5Z" fill="#DD2B1C"/>
</svg>
