<svg width="72" height="72" viewBox="0 0 72 72" fill="none" xmlns="http://www.w3.org/2000/svg">
<path d="M15.003 2.24974C15.003 1.83758 14.8897 1.43335 14.6756 1.08117C14.4615 0.728987 14.1547 0.442381 13.7889 0.25263C13.423 0.0628789 13.012 -0.0227269 12.6008 0.00515503C12.1896 0.033037 11.7939 0.173336 11.457 0.410739C6.528 3.88174 3.606 6.91174 1.95 9.83974C0.255 12.8397 0.00299978 15.5307 0.00299978 17.9997C0.00299978 21.3897 1.608 24.4017 4.098 26.3217C3.02673 27.3274 2.17844 28.5467 1.608 29.9007C0.249 33.0057 0 36.8097 0 39.8607C0 44.8497 0.795 52.4907 2.25 58.9137C2.976 62.1147 3.894 65.1477 5.025 67.4337C5.589 68.5707 6.264 69.6417 7.089 70.4577C7.92 71.2827 9.069 71.9997 10.509 71.9997C11.949 71.9997 13.095 71.2827 13.929 70.4577C14.751 69.6417 15.426 68.5677 15.987 67.4307C17.118 65.1477 18.033 62.1147 18.756 58.9107C20.208 52.4907 21 44.8497 21 39.8607C21 36.8097 20.757 33.0087 19.401 29.9007C18.8309 28.5456 17.9826 27.3253 16.911 26.3187C18.1843 25.3378 19.2154 24.0776 19.9249 22.6353C20.6343 21.193 21.0032 19.6071 21.003 17.9997C21.003 14.6217 19.347 12.2787 18.018 10.3977L17.604 9.80674C16.212 7.79674 15.003 5.75974 15.003 2.24974ZM10.425 28.4997H10.587C11.934 28.5147 12.852 28.8657 13.524 29.3517C14.23 29.8577 14.814 30.6417 15.276 31.7037C16.236 33.9027 16.5 36.9057 16.5 39.8637C16.5 44.5047 15.75 51.8097 14.37 57.9237C13.674 60.9897 12.852 63.6237 11.955 65.4357C11.505 66.3477 11.091 66.9357 10.758 67.2627C10.6829 67.3416 10.5994 67.412 10.509 67.4727C10.4176 67.4122 10.3331 67.3417 10.257 67.2627C9.924 66.9327 9.51 66.3477 9.057 65.4327C8.157 63.6207 7.335 60.9867 6.639 57.9207C5.256 51.8097 4.5 44.5047 4.5 39.8607C4.5 36.9087 4.767 33.9057 5.73 31.7067C6.194 30.6467 6.78 29.8627 7.488 29.3547C8.16 28.8657 9.081 28.5147 10.425 28.4997ZM10.584 23.9997H10.428C8.84921 23.9808 7.34152 23.3403 6.23183 22.2171C5.12213 21.094 4.49989 19.5786 4.5 17.9997C4.5 15.9117 4.707 14.1027 5.865 12.0567C6.765 10.4607 8.307 8.61274 10.995 6.39874C11.64 8.93674 12.813 10.7937 13.899 12.3687L14.259 12.8817C15.672 14.9157 16.5 16.1097 16.5 17.9997C16.5001 19.5771 15.8791 21.0911 14.7714 22.214C13.6636 23.3369 12.1612 23.9784 10.584 23.9997ZM31.5 7.49974C27.87 7.49974 24.492 8.57374 21.663 10.4217C21.237 9.73774 20.814 9.14974 20.46 8.65174L20.07 8.09974C19.7462 7.64116 19.441 7.16978 19.155 6.68674C22.4419 4.5299 26.2366 3.27194 30.161 3.03816C34.0854 2.80438 38.0026 3.60296 41.5223 5.35432C45.0421 7.10569 48.0415 9.74871 50.2218 13.0201C52.4021 16.2915 53.6871 20.0771 53.949 23.9997H60.75C63.7332 23.9997 66.5942 25.1846 68.7039 27.2937C70.8136 29.4029 71.9992 32.2636 72 35.2467V54.7467C72.0004 56.2244 71.7097 57.6876 71.1445 59.0529C70.5793 60.4181 69.7507 61.6587 68.706 62.7036C67.6613 63.7486 66.421 64.5775 65.0559 65.1431C63.6908 65.7087 62.2276 65.9997 60.75 65.9997H41.25C38.2663 65.9997 35.4048 64.8145 33.295 62.7047C31.1853 60.5949 30 57.7334 30 54.7497V47.9517C27.8348 47.8085 25.7017 47.3528 23.667 46.5987C23.817 44.9187 23.916 43.3167 23.967 41.8527C25.827 42.7107 27.861 43.2627 30 43.4397V35.2497C30 32.2661 31.1853 29.4046 33.295 27.2948C35.4048 25.185 38.2663 23.9997 41.25 23.9997H49.44C49.0638 19.5008 47.0106 15.3074 43.6877 12.2512C40.3648 9.195 36.0147 7.49908 31.5 7.49974ZM53.802 28.4997C53.143 33.3871 50.8974 37.9229 47.4103 41.41C43.9231 44.8972 39.3874 47.1428 34.5 47.8017V54.7497C34.5 56.54 35.2112 58.2568 36.477 59.5227C37.7429 60.7886 39.4598 61.4997 41.25 61.4997H60.75C62.5402 61.4997 64.2571 60.7886 65.523 59.5227C66.7888 58.2568 67.5 56.54 67.5 54.7497V35.2497C67.5 33.4595 66.7888 31.7426 65.523 30.4768C64.2571 29.2109 62.5402 28.4997 60.75 28.4997H53.802ZM49.251 28.4997H41.25C39.4598 28.4997 37.7429 29.2109 36.477 30.4768C35.2112 31.7426 34.5 33.4595 34.5 35.2497V43.2507C38.1852 42.6261 41.5849 40.8706 44.2279 38.2276C46.8709 35.5846 48.6263 32.185 49.251 28.4997Z" fill="#DD2B1C"/>
</svg>
