<svg width="210" height="210" viewBox="0 0 210 210" fill="none" xmlns="http://www.w3.org/2000/svg">
<path d="M43.5801 6.53496C43.58 5.33773 43.251 4.16355 42.6291 3.14054C42.0071 2.11753 41.1162 1.28501 40.0534 0.73383C38.9906 0.182648 37.7968 -0.0660163 36.6023 0.0149741C35.4078 0.0959646 34.2585 0.503499 33.2799 1.1931C18.9623 11.2755 10.4746 20.077 5.66429 28.5821C0.740715 37.2964 0.00871365 45.1131 0.00871365 52.285C0.00871365 62.1321 4.67086 70.8812 11.9037 76.4584C8.79192 79.3795 6.32785 82.9212 4.67086 86.8545C0.723286 95.8738 0 106.924 0 115.786C0 130.278 2.30929 152.473 6.53571 171.13C8.64457 180.429 11.3111 189.239 14.5964 195.879C16.2347 199.182 18.1954 202.293 20.5919 204.663C23.0057 207.059 26.3433 209.142 30.5261 209.142C34.709 209.142 38.0379 207.059 40.4604 204.663C42.8481 202.293 44.8089 199.173 46.4384 195.87C49.7237 189.239 52.3816 180.429 54.4817 171.122C58.6994 152.473 61 130.278 61 115.786C61 106.924 60.2941 95.8825 56.3553 86.8545C54.6994 82.9181 52.2352 79.3733 49.1224 76.4497C52.8211 73.6003 55.8162 69.9398 57.877 65.7502C59.9378 61.5607 61.0092 56.9539 61.0087 52.285C61.0087 42.4727 56.1984 35.6668 52.338 30.203L51.1354 28.4862C47.092 22.6477 43.5801 16.7307 43.5801 6.53496ZM30.2821 82.785H30.7527C34.6654 82.8285 37.332 83.8481 39.284 85.2598C41.3348 86.7296 43.0311 89.007 44.3731 92.0918C47.1617 98.4794 47.9286 107.202 47.9286 115.795C47.9286 129.276 45.75 150.495 41.7414 168.255C39.7197 177.161 37.332 184.812 34.7264 190.075C33.4193 192.724 32.2167 194.432 31.2494 195.382C31.0312 195.611 30.7887 195.816 30.5261 195.992C30.2606 195.816 30.0151 195.612 29.7941 195.382C28.8269 194.424 27.6243 192.724 26.3084 190.067C23.6941 184.803 21.3064 177.152 19.2847 168.246C15.2674 150.495 13.0714 129.276 13.0714 115.786C13.0714 107.211 13.847 98.4881 16.6443 92.1005C17.9921 89.0215 19.6943 86.7441 21.7509 85.2685C23.7029 83.8481 26.3781 82.8285 30.2821 82.785ZM30.744 69.7135H30.2909C25.7049 69.6585 21.3254 67.798 18.102 64.5355C14.8786 61.2729 13.0711 56.8713 13.0714 52.285C13.0714 46.2198 13.6727 40.9651 17.0364 35.022C19.6507 30.386 24.1299 25.018 31.9379 18.5868C33.8114 25.9591 37.2187 31.3532 40.3733 35.9282L41.419 37.4184C45.5234 43.3267 47.9286 46.795 47.9286 52.285C47.929 56.8668 46.1251 61.2646 42.9073 64.5264C39.6895 67.7882 35.3254 69.6517 30.744 69.7135ZM91.5 21.785C80.9557 21.785 71.1434 24.9047 62.9259 30.2727C61.6884 28.2858 60.4597 26.5778 59.4314 25.1312L58.2986 23.5278C57.3581 22.1957 56.4715 20.8265 55.6407 19.4234C65.1884 13.1583 76.211 9.5042 87.6106 8.82514C99.0101 8.14607 110.389 10.4657 120.613 15.553C130.836 20.6403 139.549 28.3177 145.882 37.8203C152.216 47.323 155.948 58.3192 156.709 69.7135H176.464C185.13 69.7135 193.44 73.1552 199.568 79.2818C205.697 85.4083 209.141 93.718 209.143 102.383V159.026C209.144 163.318 208.3 167.569 206.658 171.534C205.016 175.5 202.609 179.104 199.575 182.139C196.54 185.175 192.937 187.582 188.972 189.225C185.007 190.868 180.756 191.714 176.464 191.714H119.821C111.155 191.714 102.843 188.271 96.7142 182.142C90.5858 176.014 87.1429 167.702 87.1429 159.035V139.288C80.8535 138.872 74.6574 137.549 68.747 135.358C69.1827 130.478 69.4703 125.825 69.6184 121.572C75.0213 124.065 80.9296 125.668 87.1429 126.182V102.392C87.1429 93.7252 90.5858 85.4133 96.7142 79.2849C102.843 73.1564 111.155 69.7135 119.821 69.7135H143.611C142.519 56.6451 136.555 44.4644 126.902 35.5869C117.25 26.7093 104.614 21.7831 91.5 21.785ZM156.282 82.785C154.368 96.9816 147.845 110.157 137.716 120.286C127.586 130.416 114.411 136.939 100.214 138.853V159.035C100.214 164.235 102.28 169.222 105.957 172.899C109.634 176.576 114.621 178.642 119.821 178.642H176.464C181.664 178.642 186.652 176.576 190.329 172.899C194.006 169.222 196.071 164.235 196.071 159.035V102.392C196.071 97.192 194.006 92.2048 190.329 88.5278C186.652 84.8507 181.664 82.785 176.464 82.785H156.282ZM143.062 82.785H119.821C114.621 82.785 109.634 84.8507 105.957 88.5278C102.28 92.2048 100.214 97.192 100.214 102.392V125.633C110.919 123.819 120.794 118.719 128.471 111.042C136.149 103.365 141.248 93.4896 143.062 82.785Z" fill="#DD2B1C" fill-opacity="0.1"/>
</svg>
