<svg width="234" height="214" viewBox="0 0 234 214" fill="none" xmlns="http://www.w3.org/2000/svg">
<path d="M213.5 50.8333H181.272L162.667 30.5H101.667V50.8333H153.72L172.325 71.1667H213.5V193.167H50.8333V101.667H30.5V193.167C30.5 204.35 39.65 213.5 50.8333 213.5H213.5C224.683 213.5 233.833 204.35 233.833 193.167V71.1667C233.833 59.9833 224.683 50.8333 213.5 50.8333ZM81.3333 132.167C81.3333 160.227 104.107 183 132.167 183C160.227 183 183 160.227 183 132.167C183 104.107 160.227 81.3333 132.167 81.3333C104.107 81.3333 81.3333 104.107 81.3333 132.167ZM132.167 101.667C148.942 101.667 162.667 115.392 162.667 132.167C162.667 148.942 148.942 162.667 132.167 162.667C115.392 162.667 101.667 148.942 101.667 132.167C101.667 115.392 115.392 101.667 132.167 101.667ZM50.8333 50.8333H81.3333V30.5H50.8333V0H30.5V30.5H0V50.8333H30.5V81.3333H50.8333V50.8333Z" fill="#DD2B1C" fill-opacity="0.1"/>
</svg>
