<svg width="81" height="74" viewBox="0 0 81 74" fill="none" xmlns="http://www.w3.org/2000/svg">
<path d="M73.5 17.5H62.405L56 10.5H35V17.5H52.92L59.325 24.5H73.5V66.5H17.5V35H10.5V66.5C10.5 70.35 13.65 73.5 17.5 73.5H73.5C77.35 73.5 80.5 70.35 80.5 66.5V24.5C80.5 20.65 77.35 17.5 73.5 17.5ZM28 45.5C28 55.16 35.84 63 45.5 63C55.16 63 63 55.16 63 45.5C63 35.84 55.16 28 45.5 28C35.84 28 28 35.84 28 45.5ZM45.5 35C51.275 35 56 39.725 56 45.5C56 51.275 51.275 56 45.5 56C39.725 56 35 51.275 35 45.5C35 39.725 39.725 35 45.5 35ZM17.5 17.5H28V10.5H17.5V0H10.5V10.5H0V17.5H10.5V28H17.5V17.5Z" fill="#DD2B1C"/>
</svg>
