<svg width="82" height="51" viewBox="0 0 82 51" fill="none" xmlns="http://www.w3.org/2000/svg">
<path d="M27 48C28.8565 48 30.637 47.2625 31.9497 45.9497C33.2625 44.637 34 42.8565 34 41C34 39.1435 33.2625 37.363 31.9497 36.0503C30.637 34.7375 28.8565 34 27 34C25.1435 34 23.363 34.7375 22.0503 36.0503C20.7375 37.363 20 39.1435 20 41C20 42.8565 20.7375 44.637 22.0503 45.9497C23.363 47.2625 25.1435 48 27 48ZM62 48C63.8565 48 65.637 47.2625 66.9497 45.9497C68.2625 44.637 69 42.8565 69 41C69 39.1435 68.2625 37.363 66.9497 36.0503C65.637 34.7375 63.8565 34 62 34C60.1435 34 58.363 34.7375 57.0503 36.0503C55.7375 37.363 55 39.1435 55 41C55 42.8565 55.7375 44.637 57.0503 45.9497C58.363 47.2625 60.1435 48 62 48Z" stroke="#DD2B1C" stroke-width="5" stroke-miterlimit="1.5" stroke-linecap="round" stroke-linejoin="round"/>
<path d="M34.175 41H51.5V4.6C51.5 4.04305 51.2788 3.5089 50.8849 3.11508C50.4911 2.72125 49.957 2.5 49.4 2.5H2.5M18.775 41H11.6C11.3242 41 11.0511 40.9457 10.7964 40.8401C10.5416 40.7346 10.3101 40.5799 10.1151 40.3849C9.92007 40.1899 9.76539 39.9584 9.65985 39.7036C9.55432 39.4489 9.5 39.1758 9.5 38.9V21.75" stroke="#DD2B1C" stroke-width="5" stroke-linecap="round"/>
<path d="M6 13H20" stroke="#DD2B1C" stroke-width="5" stroke-linecap="round" stroke-linejoin="round"/>
<path d="M51.5 13H71.135C71.5409 13.0001 71.9381 13.1178 72.2785 13.339C72.6189 13.5601 72.8879 13.8752 73.053 14.246L79.318 28.344C79.4374 28.6117 79.4993 28.9014 79.5 29.1945V38.9C79.5 39.1758 79.4457 39.4489 79.3401 39.7036C79.2346 39.9584 79.0799 40.1899 78.8849 40.3849C78.6899 40.5799 78.4584 40.7346 78.2036 40.8401C77.9489 40.9457 77.6758 41 77.4 41H70.75M51.5 41H55" stroke="#DD2B1C" stroke-width="5" stroke-linecap="round"/>
</svg>
