<svg width="236" height="145" viewBox="0 0 236 145" fill="none" xmlns="http://www.w3.org/2000/svg">
<path d="M77.1668 138.167C82.5596 138.167 87.7314 136.024 91.5447 132.211C95.3579 128.398 97.5002 123.226 97.5002 117.833C97.5002 112.441 95.3579 107.269 91.5447 103.455C87.7314 99.6423 82.5596 97.5 77.1668 97.5C71.7741 97.5 66.6022 99.6423 62.789 103.455C58.9758 107.269 56.8335 112.441 56.8335 117.833C56.8335 123.226 58.9758 128.398 62.789 132.211C66.6022 136.024 71.7741 138.167 77.1668 138.167ZM178.833 138.167C184.226 138.167 189.398 136.024 193.211 132.211C197.025 128.398 199.167 123.226 199.167 117.833C199.167 112.441 197.025 107.269 193.211 103.455C189.398 99.6423 184.226 97.5 178.833 97.5C173.441 97.5 168.269 99.6423 164.456 103.455C160.642 107.269 158.5 112.441 158.5 117.833C158.5 123.226 160.642 128.398 164.456 132.211C168.269 136.024 173.441 138.167 178.833 138.167Z" stroke="#DD2B1C" stroke-opacity="0.1" stroke-width="12" stroke-miterlimit="1.5" stroke-linecap="round" stroke-linejoin="round"/>
<path d="M98.0083 117.833H148.333V12.1C148.333 10.4822 147.691 8.93062 146.547 7.78665C145.403 6.64268 143.851 6 142.233 6H6M53.275 117.833H32.4333C31.6323 117.833 30.839 117.676 30.099 117.369C29.3589 117.062 28.6864 116.613 28.12 116.047C27.5535 115.48 27.1042 114.808 26.7977 114.068C26.4911 113.328 26.3333 112.534 26.3333 111.733V61.9167" stroke="#DD2B1C" stroke-opacity="0.1" stroke-width="12" stroke-linecap="round"/>
<path d="M16.1665 36.5H56.8332" stroke="#DD2B1C" stroke-opacity="0.1" stroke-width="12" stroke-linecap="round" stroke-linejoin="round"/>
<path d="M148.333 36.5H205.369C206.548 36.5003 207.701 36.8423 208.69 37.4846C209.679 38.127 210.46 39.0421 210.94 40.1193L229.138 81.0707C229.485 81.8483 229.665 82.6898 229.667 83.5412V111.733C229.667 112.534 229.509 113.328 229.203 114.068C228.896 114.808 228.447 115.48 227.88 116.047C227.314 116.613 226.641 117.062 225.901 117.369C225.161 117.676 224.368 117.833 223.567 117.833H204.25M148.333 117.833H158.5" stroke="#DD2B1C" stroke-opacity="0.1" stroke-width="12" stroke-linecap="round"/>
</svg>
