<svg width="244" height="244" viewBox="0 0 244 244" fill="none" xmlns="http://www.w3.org/2000/svg">
<path d="M167.054 70.8553L154.368 50.8111C151.695 47.6944 148.03 45.75 143.922 45.75H100.078C95.9702 45.75 92.3054 47.6944 89.6319 50.8111L76.9458 70.8553C74.2723 73.9768 70.8267 76.25 66.7188 76.25H38.125C34.0804 76.25 30.2016 77.8567 27.3416 80.7166C24.4817 83.5766 22.875 87.4554 22.875 91.5V183C22.875 187.045 24.4817 190.923 27.3416 193.783C30.2016 196.643 34.0804 198.25 38.125 198.25H205.875C209.92 198.25 213.798 196.643 216.658 193.783C219.518 190.923 221.125 187.045 221.125 183V91.5C221.125 87.4554 219.518 83.5766 216.658 80.7166C213.798 77.8567 209.92 76.25 205.875 76.25H177.758C173.636 76.25 169.728 73.9768 167.054 70.8553Z" stroke="#DD2B1C" stroke-opacity="0.1" stroke-width="13" stroke-linecap="round" stroke-linejoin="round"/>
<path d="M122 167.75C143.056 167.75 160.125 150.681 160.125 129.625C160.125 108.569 143.056 91.5 122 91.5C100.944 91.5 83.875 108.569 83.875 129.625C83.875 150.681 100.944 167.75 122 167.75Z" stroke="#DD2B1C" stroke-opacity="0.1" stroke-width="13" stroke-miterlimit="10"/>
<path d="M59.0938 75.2969V64.8125H47.6562V75.2969" stroke="#DD2B1C" stroke-opacity="0.1" stroke-width="13" stroke-linecap="round" stroke-linejoin="round"/>
</svg>
