<svg width="84" height="84" viewBox="0 0 84 84" fill="none" xmlns="http://www.w3.org/2000/svg">
<path d="M57.5105 24.3928L53.1431 17.4923C52.2227 16.4194 50.9611 15.75 49.5469 15.75H34.4531C33.0389 15.75 31.7773 16.4194 30.8569 17.4923L26.4895 24.3928C25.5691 25.4674 24.383 26.25 22.9688 26.25H13.125C11.7326 26.25 10.3973 26.8031 9.41269 27.7877C8.42812 28.7723 7.875 30.1076 7.875 31.5V63C7.875 64.3924 8.42812 65.7277 9.41269 66.7123C10.3973 67.6969 11.7326 68.25 13.125 68.25H70.875C72.2674 68.25 73.6027 67.6969 74.5873 66.7123C75.5719 65.7277 76.125 64.3924 76.125 63V31.5C76.125 30.1076 75.5719 28.7723 74.5873 27.7877C73.6027 26.8031 72.2674 26.25 70.875 26.25H61.1953C59.7762 26.25 58.4309 25.4674 57.5105 24.3928Z" stroke="#DD2B1C" stroke-width="4" stroke-linecap="round" stroke-linejoin="round"/>
<path d="M42 57.75C49.2487 57.75 55.125 51.8737 55.125 44.625C55.125 37.3763 49.2487 31.5 42 31.5C34.7513 31.5 28.875 37.3763 28.875 44.625C28.875 51.8737 34.7513 57.75 42 57.75Z" stroke="#DD2B1C" stroke-width="4" stroke-miterlimit="10"/>
<path d="M20.3438 25.9219V22.3125H16.4062V25.9219" stroke="#DD2B1C" stroke-width="4" stroke-linecap="round" stroke-linejoin="round"/>
</svg>
