<svg width="196" height="176" viewBox="0 0 196 176" fill="none" xmlns="http://www.w3.org/2000/svg">
<path d="M98 128.5H169.167C174.559 128.5 179.731 126.358 183.545 122.545C187.358 118.731 189.5 113.559 189.5 108.167V26.8333C189.5 21.4406 187.358 16.2687 183.545 12.4555C179.731 8.64225 174.559 6.5 169.167 6.5H26.8333C21.4406 6.5 16.2687 8.64225 12.4555 12.4555C8.64225 16.2687 6.5 21.4406 6.5 26.8333V108.167C6.5 113.559 8.64225 118.731 12.4555 122.545C16.2687 126.358 21.4406 128.5 26.8333 128.5H98ZM98 128.5V169.167M98 169.167H138.667M98 169.167H57.3333" stroke="#DD2B1C" stroke-opacity="0.1" stroke-width="13" stroke-linecap="round" stroke-linejoin="round"/>
</svg>
