<svg width="67" height="60" viewBox="0 0 67 60" fill="none" xmlns="http://www.w3.org/2000/svg">
<path d="M33.5 44H58C59.8565 44 61.637 43.2625 62.9497 41.9497C64.2625 40.637 65 38.8565 65 37V9C65 7.14348 64.2625 5.36301 62.9497 4.05025C61.637 2.7375 59.8565 2 58 2H9C7.14348 2 5.36301 2.7375 4.05025 4.05025C2.7375 5.36301 2 7.14348 2 9V37C2 38.8565 2.7375 40.637 4.05025 41.9497C5.36301 43.2625 7.14348 44 9 44H33.5ZM33.5 44V58M33.5 58H47.5M33.5 58H19.5" stroke="#DD2B1C" stroke-width="4" stroke-linecap="round" stroke-linejoin="round"/>
</svg>
