<svg width="169" height="201" viewBox="0 0 169 201" fill="none" xmlns="http://www.w3.org/2000/svg">
<path d="M81.1927 9.18217C85.0791 10.9492 88.6159 13.4011 91.6338 16.4208L152.309 77.1158C155.359 80.1658 157.798 83.6937 159.537 87.5468M81.1927 9.18217C76.5688 7.08319 71.5493 5.99816 66.4713 6H41.5833C32.146 6 23.0953 9.74895 16.4221 16.4221C9.74895 23.0953 6 32.146 6 41.5833V158.5C6 167.937 9.74895 176.988 16.4221 183.661C23.0953 190.334 32.146 194.083 41.5833 194.083H127.146C136.583 194.083 145.634 190.334 152.307 183.661C158.98 176.988 162.729 167.937 162.729 158.5V102.278C162.729 97.1442 161.621 92.132 159.537 87.5468M81.1927 9.18217V67.2033C81.1927 72.5961 83.3349 77.7679 87.1482 81.5812C90.9614 85.3944 96.1333 87.5367 101.526 87.5367L159.537 87.5468" stroke="#DD2B1C" stroke-opacity="0.1" stroke-width="12" stroke-linecap="round" stroke-linejoin="round"/>
</svg>
