<svg width="58" height="69" viewBox="0 0 58 69" fill="none" xmlns="http://www.w3.org/2000/svg">
<path d="M27.886 3.0955C29.224 3.70381 30.4415 4.54793 31.4805 5.5875L52.3685 26.4825C53.4185 27.5325 54.2585 28.747 54.857 30.0735M27.886 3.0955C26.2942 2.3729 24.5661 1.99937 22.818 2H14.25C11.0011 2 7.88526 3.29062 5.58794 5.58794C3.29062 7.88526 2 11.0011 2 14.25V54.5C2 57.7489 3.29062 60.8647 5.58794 63.1621C7.88526 65.4594 11.0011 66.75 14.25 66.75H43.706C46.9549 66.75 50.0707 65.4594 52.3681 63.1621C54.6654 60.8647 55.956 57.7489 55.956 54.5V35.145C55.956 33.3775 55.5745 31.652 54.857 30.0735M27.886 3.0955V23.07C27.886 24.9265 28.6235 26.707 29.9363 28.0197C31.249 29.3325 33.0295 30.07 34.886 30.07L54.857 30.0735" stroke="#DD2B1C" stroke-width="4" stroke-linecap="round" stroke-linejoin="round"/>
</svg>
