<svg width="75" height="75" viewBox="0 0 75 75" fill="none" xmlns="http://www.w3.org/2000/svg">
<path d="M45.7561 38.7561L52.7561 31.7561M35.2561 28.2561L42.2561 21.2561M24.7561 17.7561L31.7561 10.7561M56.2561 49.2561L63.2561 42.2561M69.5561 48.5561C70.3392 49.3365 70.9606 50.2638 71.3846 51.2849C71.8085 52.3059 72.0268 53.4006 72.0268 54.5061C72.0268 55.6117 71.8085 56.7064 71.3846 57.7274C70.9606 58.7485 70.3392 59.6758 69.5561 60.4561L60.4561 69.5561C59.6758 70.3392 58.7485 70.9606 57.7274 71.3846C56.7064 71.8085 55.6117 72.0268 54.5061 72.0268C53.4006 72.0268 52.3059 71.8085 51.2849 71.3846C50.2638 70.9606 49.3365 70.3392 48.5561 69.5561L4.45614 25.4561C2.88309 23.8755 2 21.7362 2 19.5061C2 17.2761 2.88309 15.1368 4.45614 13.5561L13.5561 4.45614C15.1368 2.88309 17.2761 2 19.5061 2C21.7362 2 23.8755 2.88309 25.4561 4.45614L69.5561 48.5561Z" stroke="#DD2B1C" stroke-width="4" stroke-linecap="round" stroke-linejoin="round"/>
</svg>
