<svg width="217" height="217" viewBox="0 0 217 217" fill="none" xmlns="http://www.w3.org/2000/svg">
<path d="M133.601 113.268L153.935 92.9345M103.101 82.7678L123.435 62.4345M72.6012 52.2678L92.9345 31.9345M164.101 143.768L184.435 123.435M202.735 141.735C205.009 144.001 206.814 146.695 208.046 149.661C209.277 152.627 209.911 155.806 209.911 159.018C209.911 162.229 209.277 165.409 208.046 168.375C206.814 171.341 205.009 174.034 202.735 176.301L176.301 202.735C174.034 205.009 171.341 206.814 168.375 208.046C165.409 209.277 162.229 209.911 159.018 209.911C155.806 209.911 152.627 209.277 149.661 208.046C146.695 206.814 144.001 205.009 141.735 202.735L13.6345 74.6345C9.06517 70.043 6.5 63.8289 6.5 57.3512C6.5 50.8735 9.06517 44.6593 13.6345 40.0678L40.0678 13.6345C44.6593 9.06517 50.8735 6.5 57.3512 6.5C63.8289 6.5 70.043 9.06517 74.6345 13.6345L202.735 141.735Z" stroke="#DD2B1C" stroke-opacity="0.1" stroke-width="13" stroke-linecap="round" stroke-linejoin="round"/>
</svg>
