<svg width="244" height="244" viewBox="0 0 244 244" fill="none" xmlns="http://www.w3.org/2000/svg">
<path d="M122 223.665C65.9813 223.665 20.333 178.017 20.333 121.999C20.333 65.9804 65.9813 20.332 122 20.332C178.018 20.332 223.666 61.4054 223.666 111.832C223.666 145.484 196.318 172.832 162.666 172.832H144.671C141.825 172.832 139.588 175.069 139.588 177.915C139.588 179.135 140.096 180.254 140.91 181.27C145.078 186.049 147.416 192.047 147.416 198.249C147.416 204.99 144.739 211.454 139.972 216.221C135.205 220.988 128.741 223.665 122 223.665ZM122 40.6654C77.1647 40.6654 40.6663 77.1637 40.6663 121.999C40.6663 166.834 77.1647 203.332 122 203.332C124.846 203.332 127.083 201.095 127.083 198.249C127.051 196.93 126.546 195.667 125.66 194.69C121.491 190.014 119.255 184.015 119.255 177.915C119.255 171.174 121.932 164.71 126.699 159.943C131.466 155.177 137.93 152.499 144.671 152.499H162.666C185.135 152.499 203.333 134.3 203.333 111.832C203.333 72.5887 166.835 40.6654 122 40.6654Z" fill="#DD2B1C" fill-opacity="0.1"/>
<path d="M66.083 132.168C74.5054 132.168 81.333 125.34 81.333 116.918C81.333 108.496 74.5054 101.668 66.083 101.668C57.6607 101.668 50.833 108.496 50.833 116.918C50.833 125.34 57.6607 132.168 66.083 132.168Z" fill="#DD2B1C" fill-opacity="0.1"/>
<path d="M96.583 91.5C105.005 91.5 111.833 84.6723 111.833 76.25C111.833 67.8277 105.005 61 96.583 61C88.1607 61 81.333 67.8277 81.333 76.25C81.333 84.6723 88.1607 91.5 96.583 91.5Z" fill="#DD2B1C" fill-opacity="0.1"/>
<path d="M147.417 91.5C155.839 91.5 162.667 84.6723 162.667 76.25C162.667 67.8277 155.839 61 147.417 61C138.995 61 132.167 67.8277 132.167 76.25C132.167 84.6723 138.995 91.5 147.417 91.5Z" fill="#DD2B1C" fill-opacity="0.1"/>
<path d="M177.917 132.168C186.339 132.168 193.167 125.34 193.167 116.918C193.167 108.496 186.339 101.668 177.917 101.668C169.495 101.668 162.667 108.496 162.667 116.918C162.667 125.34 169.495 132.168 177.917 132.168Z" fill="#DD2B1C" fill-opacity="0.1"/>
</svg>
