<svg width="84" height="84" viewBox="0 0 84 84" fill="none" xmlns="http://www.w3.org/2000/svg">
<g opacity="0.84">
<path d="M42 77C22.715 77 7 61.285 7 42C7 22.715 22.715 7 42 7C61.285 7 77 21.14 77 38.5C77 50.085 67.585 59.5 56 59.5H49.805C48.825 59.5 48.055 60.27 48.055 61.25C48.055 61.67 48.23 62.055 48.51 62.405C49.945 64.05 50.75 66.115 50.75 68.25C50.75 70.5706 49.8281 72.7962 48.1872 74.4372C46.5462 76.0781 44.3206 77 42 77ZM42 14C26.565 14 14 26.565 14 42C14 57.435 26.565 70 42 70C42.98 70 43.75 69.23 43.75 68.25C43.7391 67.7961 43.5652 67.3612 43.26 67.025C41.825 65.415 41.055 63.35 41.055 61.25C41.055 58.9294 41.9769 56.7038 43.6178 55.0628C45.2588 53.4219 47.4844 52.5 49.805 52.5H56C63.735 52.5 70 46.235 70 38.5C70 24.99 57.435 14 42 14Z" fill="#DD2B1C"/>
<path d="M22.75 45.5C25.6495 45.5 28 43.1495 28 40.25C28 37.3505 25.6495 35 22.75 35C19.8505 35 17.5 37.3505 17.5 40.25C17.5 43.1495 19.8505 45.5 22.75 45.5Z" fill="#DD2B1C"/>
<path d="M33.25 31.5C36.1495 31.5 38.5 29.1495 38.5 26.25C38.5 23.3505 36.1495 21 33.25 21C30.3505 21 28 23.3505 28 26.25C28 29.1495 30.3505 31.5 33.25 31.5Z" fill="#DD2B1C"/>
<path d="M50.75 31.5C53.6495 31.5 56 29.1495 56 26.25C56 23.3505 53.6495 21 50.75 21C47.8505 21 45.5 23.3505 45.5 26.25C45.5 29.1495 47.8505 31.5 50.75 31.5Z" fill="#DD2B1C"/>
<path d="M61.25 45.5C64.1495 45.5 66.5 43.1495 66.5 40.25C66.5 37.3505 64.1495 35 61.25 35C58.3505 35 56 37.3505 56 40.25C56 43.1495 58.3505 45.5 61.25 45.5Z" fill="#DD2B1C"/>
</g>
</svg>
