<svg width="206" height="78" viewBox="0 0 206 78" fill="none" xmlns="http://www.w3.org/2000/svg">
<path d="M93.8869 53.4303V64.7068H92.4113V59.6807H86.4802V64.7068H85.0049V53.4303H86.4802V58.2793H92.4113V53.4303H93.8869ZM100.128 64.8034C99.3507 64.8034 98.6522 64.6155 98.0328 64.2398C97.4132 63.864 96.9285 63.3457 96.5795 62.6852C96.2302 62.0249 96.0559 61.2758 96.0559 60.4378C96.0559 59.6001 96.2304 58.8512 96.5795 58.1907C96.9287 57.5301 97.4132 57.0145 98.0328 56.6441C98.6522 56.2734 99.3507 56.0884 100.128 56.0884C100.905 56.0884 101.601 56.2734 102.215 56.6441C102.83 57.0145 103.312 57.5301 103.661 58.1907C104.01 58.8509 104.185 59.6001 104.185 60.4378C104.185 61.2758 104.01 62.0247 103.661 62.6852C103.312 63.3457 102.83 63.864 102.215 64.2398C101.601 64.6155 100.905 64.8034 100.128 64.8034ZM100.128 63.4503C100.629 63.4503 101.079 63.3241 101.478 63.0716C101.876 62.8192 102.188 62.465 102.415 62.0084C102.641 61.552 102.754 61.0284 102.754 60.4378C102.754 59.8472 102.641 59.3238 102.415 58.8672C102.188 58.4108 101.876 58.0591 101.478 57.8122C101.079 57.5654 100.63 57.4418 100.128 57.4418C99.6262 57.4418 99.1762 57.5654 98.7775 57.8122C98.3794 58.0591 98.0646 58.4108 97.8333 58.8672C97.6021 59.3238 97.4867 59.8472 97.4867 60.4378C97.4867 61.0284 97.6021 61.552 97.8333 62.0084C98.0646 62.465 98.3794 62.8194 98.7775 63.0716C99.1759 63.3241 99.6259 63.4503 100.128 63.4503ZM106.147 52.7535H107.564V64.7065H106.147V52.7535ZM117.64 52.7535V64.7065H116.283V63.3532C115.968 63.8258 115.57 64.1856 115.088 64.4325C114.606 64.6793 114.075 64.8029 113.494 64.8029C112.737 64.8029 112.058 64.6203 111.459 64.2552C110.859 63.8902 110.389 63.3775 110.05 62.717C109.71 62.0564 109.541 61.2966 109.541 60.4373C109.541 59.5782 109.71 58.821 110.05 58.1658C110.389 57.5107 110.859 57.0006 111.459 56.6356C112.059 56.2702 112.737 56.0879 113.494 56.0879C114.055 56.0879 114.571 56.2035 115.044 56.4343C115.516 56.6652 115.909 57.006 116.224 57.4573V52.7532H117.64L117.64 52.7535ZM113.613 63.4503C114.105 63.4503 114.552 63.3241 114.955 63.0716C115.359 62.8192 115.673 62.465 115.899 62.0084C116.126 61.552 116.239 61.0284 116.239 60.4378C116.239 59.8472 116.126 59.3238 115.899 58.8672C115.673 58.4108 115.359 58.0591 114.955 57.8122C114.552 57.5654 114.104 57.4418 113.613 57.4418C113.111 57.4418 112.661 57.5654 112.263 57.8122C111.864 58.0591 111.55 58.4108 111.318 58.8672C111.087 59.3238 110.972 59.8472 110.972 60.4378C110.972 61.0284 111.087 61.552 111.318 62.0084C111.55 62.465 111.864 62.8194 112.263 63.0716C112.661 63.3241 113.111 63.4503 113.613 63.4503ZM120.325 56.1688H121.742V64.7068H120.325V56.1688ZM121.034 54.5256C120.758 54.5256 120.53 54.4287 120.348 54.2358C120.166 54.0423 120.075 53.8061 120.075 53.5267C120.075 53.2472 120.166 53.0084 120.348 52.8098C120.53 52.611 120.758 52.5117 121.034 52.5117C121.309 52.5117 121.538 52.6057 121.72 52.7935C121.902 52.9817 121.993 53.2152 121.993 53.4944C121.993 53.7842 121.902 54.0287 121.72 54.2272C121.538 54.4261 121.309 54.5253 121.034 54.5253V54.5256ZM128.617 56.0882C129.611 56.0882 130.4 56.402 130.985 57.0305C131.571 57.6588 131.863 58.5798 131.863 59.7933V64.7065H130.447V59.9705C130.447 59.1434 130.265 58.5205 129.901 58.1015C129.537 57.6828 129.015 57.4733 128.337 57.4733C127.57 57.4733 126.965 57.7178 126.522 58.2064C126.08 58.6951 125.858 59.3959 125.858 60.3086V64.7063H124.442V56.1682H125.799V57.457C126.085 57.0167 126.471 56.6785 126.958 56.4421C127.444 56.2056 127.998 56.0877 128.617 56.0877V56.0882ZM141.969 56.1688V63.547C141.969 65.0396 141.63 66.1432 140.951 66.8576C140.273 67.5718 139.26 67.9286 137.912 67.9286C137.174 67.9286 136.471 67.8186 135.802 67.5982C135.133 67.3783 134.593 67.0639 134.18 66.6561L134.858 65.464C135.222 65.8077 135.672 66.0786 136.208 66.2774C136.744 66.4762 137.298 66.5752 137.868 66.5752C138.783 66.5752 139.459 66.3391 139.897 65.8664C140.334 65.3938 140.553 64.6745 140.553 63.7076V63.0311C140.219 63.4717 139.808 63.8016 139.321 64.022C138.834 64.2422 138.306 64.3524 137.735 64.3524C136.987 64.3524 136.311 64.1779 135.706 63.8288C135.101 63.48 134.627 62.991 134.283 62.3631C133.939 61.7346 133.766 61.018 133.766 60.2123C133.766 59.4068 133.939 58.69 134.283 58.0618C134.627 57.4333 135.101 56.9475 135.706 56.6038C136.311 56.2603 136.987 56.0884 137.735 56.0884C138.325 56.0884 138.873 56.2064 139.38 56.4429C139.887 56.6793 140.302 57.0281 140.627 57.4898V56.169H141.969L141.969 56.1688ZM137.897 62.999C138.409 62.999 138.869 62.8811 139.277 62.6446C139.685 62.4082 140.005 62.078 140.236 61.6537C140.467 61.2294 140.583 60.749 140.583 60.212C140.583 59.385 140.332 58.7167 139.83 58.2064C139.329 57.6961 138.684 57.4413 137.898 57.4413C137.101 57.4413 136.452 57.6961 135.95 58.2064C135.449 58.7167 135.198 59.385 135.198 60.212C135.198 60.7492 135.313 61.2296 135.544 61.6537C135.776 62.078 136.095 62.4082 136.503 62.6446C136.912 62.8811 137.376 62.999 137.898 62.999H137.897Z" fill="white"/>
<path fill-rule="evenodd" clip-rule="evenodd" d="M17.8262 53.9907C17.8262 52.7332 18.2933 51.595 19.0475 50.7711C19.8021 49.9475 20.8455 49.4375 21.9962 49.4375C23.148 49.4375 24.1904 49.9475 24.9449 50.7711C25.6992 51.595 26.1663 52.7335 26.1663 53.9907C26.1663 55.2475 25.6992 56.3865 24.9449 57.2104C24.1904 58.034 23.1477 58.544 21.9962 58.544C20.8453 58.544 19.8021 58.034 19.0475 57.2104C18.2933 56.3865 17.8262 55.2472 17.8262 53.9907Z" fill="white"/>
<path fill-rule="evenodd" clip-rule="evenodd" d="M45.1387 24.1704C45.1387 22.9129 45.6058 21.7746 46.3603 20.9508C47.1146 20.1272 48.158 19.6172 49.3087 19.6172C50.4605 19.6172 51.5029 20.1272 52.2572 20.9508C53.0117 21.7746 53.4788 22.9132 53.4788 24.1704C53.4788 25.4272 53.0117 26.5662 52.2572 27.3898C51.5029 28.2137 50.4602 28.7237 49.3087 28.7237C48.1578 28.7237 47.1146 28.2137 46.3603 27.3898C45.6058 26.5662 45.1387 25.4269 45.1387 24.1704Z" fill="white"/>
<path fill-rule="evenodd" clip-rule="evenodd" d="M60.4014 23.6424C60.4014 21.9778 61.0198 20.47 62.019 19.3792C63.0179 18.2885 64.3986 17.6133 65.9233 17.6133C67.4471 17.6133 68.8276 18.2882 69.8265 19.3792C70.8264 20.4713 71.4448 21.9786 71.4448 23.6424C71.4448 25.3072 70.8264 26.8148 69.8275 27.9053C68.8283 28.9963 67.4475 29.6717 65.9231 29.6717C64.3999 29.6717 63.0196 28.9968 62.0199 27.9053C61.0195 26.8126 60.4014 25.3056 60.4014 23.6424Z" fill="white"/>
<path fill-rule="evenodd" clip-rule="evenodd" d="M45.1387 53.8384C45.1387 52.5809 45.6058 51.4426 46.36 50.619C47.1146 49.7952 48.158 49.2852 49.3087 49.2852C50.4605 49.2852 51.5029 49.7952 52.2572 50.619C53.0117 51.4426 53.4786 52.5811 53.4786 53.8384C53.4786 55.0951 53.0117 56.2342 52.2572 57.058C51.5029 57.8816 50.4602 58.3916 49.3087 58.3916C48.1578 58.3916 47.1146 57.8816 46.36 57.058C45.6058 56.2342 45.1387 55.0949 45.1387 53.8384Z" fill="white"/>
<path fill-rule="evenodd" clip-rule="evenodd" d="M60.4014 54.3692C60.4014 52.7044 61.0198 51.1968 62.019 50.1058C63.0179 49.0153 64.3986 48.3398 65.9233 48.3398C67.4471 48.3398 68.8276 49.0151 69.8265 50.1058C70.8264 51.1979 71.4448 52.7052 71.4448 54.3692C71.4448 56.0337 70.8264 57.5413 69.8275 58.6321C68.8283 59.7228 67.4475 60.3983 65.9231 60.3983C64.3999 60.3983 63.0196 59.7236 62.0199 58.6321C61.0195 57.5392 60.4014 56.0321 60.4014 54.3692Z" fill="white"/>
<path fill-rule="evenodd" clip-rule="evenodd" d="M49.7932 78.0077C48.27 78.0077 46.8897 77.3327 45.89 76.2415C44.8896 75.1486 44.2715 73.6415 44.2715 71.9783C44.2715 70.3135 44.8899 68.8059 45.8891 67.7152C46.888 66.6244 48.2687 65.9492 49.7934 65.9492C51.3172 65.9492 52.6977 66.6242 53.6969 67.7152C54.6965 68.8072 55.3149 70.3146 55.3149 71.9783C55.3149 73.6431 54.6965 75.1507 53.6976 76.2415C52.6986 77.3322 51.3177 78.0077 49.7932 78.0077Z" fill="white"/>
<path fill-rule="evenodd" clip-rule="evenodd" d="M21.6514 78.0077C20.1281 78.0077 18.7481 77.3327 17.7484 76.2415C16.748 75.1486 16.1299 73.6415 16.1299 71.9783C16.1299 70.3135 16.7483 68.8059 17.7475 67.7152C18.7464 66.6244 20.1272 65.9492 21.6516 65.9492C23.1756 65.9492 24.5561 66.6242 25.555 67.7152C26.5549 68.8072 27.1733 70.3146 27.1733 71.9783C27.1733 73.6431 26.5549 75.1507 25.556 76.2415C24.5568 77.3322 23.1761 78.0077 21.6514 78.0077Z" fill="white"/>
<path fill-rule="evenodd" clip-rule="evenodd" d="M49.7932 12.0585C48.27 12.0585 46.8897 11.3835 45.89 10.292C44.8896 9.19936 44.2715 7.69229 44.2715 6.02909C44.2715 4.36456 44.8899 2.85669 45.8891 1.76595C46.888 0.675207 48.2687 0 49.7934 0C51.3172 0 52.6977 0.67494 53.6969 1.76595C54.6965 2.85802 55.3149 4.36536 55.3149 6.02909C55.3149 7.69389 54.6965 9.2015 53.6976 10.292C52.6986 11.383 51.3177 12.0585 49.7932 12.0585Z" fill="white"/>
<path fill-rule="evenodd" clip-rule="evenodd" d="M0 54.3692C0 52.7044 0.618386 51.1968 1.61758 50.1058C2.61653 49.0153 3.99727 48.3398 5.52197 48.3398C7.04569 48.3398 8.42618 49.0151 9.42538 50.1058C10.4253 51.1979 11.0434 52.7052 11.0434 54.3692C11.0434 56.0337 10.4253 57.5413 9.42635 58.6321C8.42716 59.7228 7.04642 60.3983 5.52172 60.3983C3.99849 60.3983 2.61824 59.7236 1.61856 58.6321C0.618142 57.5392 0 56.0321 0 54.3692Z" fill="white"/>
<path fill-rule="evenodd" clip-rule="evenodd" d="M17.8262 24.0181C17.8262 22.7605 18.2933 21.6223 19.0475 20.7984C19.8021 19.9746 20.8453 19.4648 21.9962 19.4648C23.148 19.4648 24.1904 19.9746 24.9447 20.7984C25.6992 21.6223 26.1663 22.7608 26.1663 24.0181C26.1663 25.2748 25.6992 26.4139 24.9447 27.2375C24.1904 28.0613 23.1477 28.5713 21.9962 28.5713C20.845 28.5713 19.8021 28.0613 19.0475 27.2375C18.2933 26.4139 17.8262 25.2746 17.8262 24.0181Z" fill="white"/>
<path fill-rule="evenodd" clip-rule="evenodd" d="M21.6514 12.0585C20.1281 12.0585 18.7481 11.3835 17.7484 10.292C16.748 9.19936 16.1299 7.69229 16.1299 6.02909C16.1299 4.36456 16.7483 2.85669 17.7475 1.76595C18.7464 0.675207 20.1272 0 21.6516 0C23.1756 0 24.5561 0.67494 25.555 1.76595C26.5549 2.85802 27.1733 4.36536 27.1733 6.02909C27.1733 7.69389 26.5549 9.2015 25.556 10.292C24.5568 11.383 23.1761 12.0585 21.6514 12.0585Z" fill="white"/>
<path fill-rule="evenodd" clip-rule="evenodd" d="M0 23.6424C0 21.9778 0.618386 20.47 1.61758 19.3792C2.61653 18.2885 3.99727 17.6133 5.52197 17.6133C7.04569 17.6133 8.42618 18.2882 9.42538 19.3792C10.4253 20.4713 11.0434 21.9786 11.0434 23.6424C11.0434 25.3072 10.4253 26.8148 9.42635 27.9053C8.42716 28.9963 7.04642 29.6717 5.52172 29.6717C3.99849 29.6717 2.61824 28.9968 1.61856 27.9053C0.618142 26.8126 0 25.3056 0 23.6424Z" fill="white"/>
<path fill-rule="evenodd" clip-rule="evenodd" d="M30.2002 39.0057C30.2002 37.3411 30.8186 35.8335 31.8178 34.7425C32.8167 33.652 34.1975 32.9766 35.7222 32.9766C37.2459 32.9766 38.6264 33.6518 39.6253 34.7425C40.6253 35.8346 41.2436 37.3419 41.2436 39.0057C41.2436 40.6705 40.6253 42.1781 39.6263 43.2688C38.6271 44.3595 37.2464 45.035 35.7219 45.035C34.1987 45.035 32.8184 44.3601 31.8188 43.2688C30.8183 42.1759 30.2002 40.6689 30.2002 39.0057Z" fill="white"/>
<path d="M97.9856 27.9317H100.955V47.1375H97.7341L87.7693 33.1247V47.1375H84.7998V27.9317H87.7693L97.9856 42.2739V27.9317ZM116.28 47.1375H113.713V45.1866C112.606 46.6339 111.121 47.3572 109.259 47.3572C107.867 47.3572 106.713 46.9267 105.799 46.0657C104.885 45.2048 104.428 44.0556 104.428 42.6174C104.428 41.1794 104.914 40.1034 105.887 39.3892C106.86 38.6747 108.177 38.3177 109.838 38.3177H113.487V37.7682C113.487 35.8266 112.497 34.8557 110.517 34.8557C109.276 34.8557 107.984 35.3502 106.642 36.3393L105.384 34.4161C107.011 33.0057 108.856 32.3006 110.92 32.3006C112.497 32.3006 113.784 32.7353 114.782 33.6056C115.78 34.4757 116.28 35.8447 116.28 37.7132V47.1375ZM113.461 41.6974V40.4607H110.291C108.261 40.4607 107.246 41.157 107.246 42.549C107.246 43.2635 107.498 43.8082 108.001 44.184C108.504 44.5592 109.205 44.7471 110.102 44.7471C111 44.7471 111.784 44.4725 112.455 43.9227C113.126 43.3732 113.461 42.6312 113.461 41.6974ZM123.602 47.1375L118.217 32.5205H121.136L125.213 43.5656L129.289 32.5205H132.208L126.823 47.1375H123.602H123.602ZM141.619 32.3006C143.414 32.3006 144.949 32.9782 146.224 34.3334C147.499 35.6889 148.137 37.493 148.137 39.7463C148.137 41.9993 147.503 43.8309 146.237 45.2413C144.97 46.6518 143.494 47.3572 141.808 47.3572C140.122 47.3572 138.608 46.5512 137.266 44.939V47.1373H134.448V26.75H137.266V35.0753C138.373 33.225 139.824 32.3003 141.619 32.3003V32.3006ZM137.215 39.8565C137.215 41.2483 137.601 42.3884 138.373 43.2771C139.145 44.1655 140.084 44.6096 141.191 44.6096C142.298 44.6096 143.263 44.1701 144.085 43.2907C144.907 42.4113 145.318 41.2712 145.318 39.8701C145.318 38.4687 144.915 37.3056 144.11 36.3806C143.305 35.4556 142.34 34.9929 141.216 34.9929C140.092 34.9929 139.145 35.4554 138.373 36.3806C137.601 37.3056 137.215 38.4642 137.215 39.8565H137.215ZM162.203 47.1375H159.636V45.1866C158.529 46.6339 157.044 47.3572 155.182 47.3572C153.79 47.3572 152.637 46.9267 151.722 46.0657C150.808 45.2048 150.351 44.0556 150.351 42.6174C150.351 41.1794 150.838 40.1034 151.811 39.3892C152.784 38.6747 154.101 38.3177 155.761 38.3177H159.41V37.7682C159.41 35.8266 158.42 34.8557 156.441 34.8557C155.199 34.8557 153.907 35.3502 152.565 36.3393L151.307 34.4161C152.934 33.0057 154.78 32.3006 156.843 32.3006C158.42 32.3006 159.708 32.7353 160.706 33.6056C161.704 34.4757 162.203 35.8447 162.203 37.7132V47.1375ZM159.385 41.6974V40.4607H156.214C154.184 40.4607 153.169 41.157 153.169 42.549C153.169 43.2635 153.421 43.8082 153.924 44.184C154.427 44.5592 155.128 44.7471 156.025 44.7471C156.923 44.7471 157.707 44.4725 158.378 43.9227C159.049 43.3732 159.385 42.6312 159.385 41.6974ZM168.947 39.2245V47.1375H166.129V26.778H168.947V35.1856C169.349 34.288 169.957 33.5827 170.771 33.07C171.585 32.5571 172.461 32.3006 173.401 32.3006C174.91 32.3006 176.131 32.8042 177.062 33.8117C177.993 34.8191 178.459 36.275 178.459 38.1802V47.1375H175.64V39.1143C175.64 36.4217 174.617 35.0756 172.57 35.0756C171.597 35.0756 170.75 35.4281 170.029 36.1332C169.308 36.8386 168.947 37.8688 168.947 39.2243V39.2245ZM185.517 43.2774C186.314 44.1658 187.324 44.6099 188.549 44.6099C189.774 44.6099 190.784 44.1658 191.581 43.2774C192.378 42.3887 192.777 41.2397 192.777 39.829C192.777 38.4185 192.378 37.2694 191.581 36.3809C190.784 35.4925 189.774 35.0484 188.549 35.0484C187.325 35.0484 186.314 35.4925 185.517 36.3809C184.72 37.2694 184.322 38.4185 184.322 39.829C184.322 41.2397 184.72 42.3887 185.517 43.2774ZM193.582 45.173C192.24 46.6294 190.562 47.3574 188.549 47.3574C186.536 47.3574 184.858 46.6294 183.516 45.173C182.174 43.7167 181.503 41.9358 181.503 39.829C181.503 37.7225 182.174 35.9411 183.516 34.485C184.858 33.0286 186.536 32.3008 188.549 32.3008C190.562 32.3008 192.24 33.0286 193.582 34.485C194.924 35.9414 195.595 37.7225 195.595 39.829C195.595 41.9358 194.924 43.7169 193.582 45.173ZM205.811 35.4055C204.419 35.4055 203.37 35.8997 202.666 36.8891C201.961 37.8781 201.609 39.2058 201.609 40.873V47.1375H198.791V32.5205H201.609V35.4604C202.061 34.5448 202.678 33.7935 203.458 33.2072C204.238 32.6211 205.065 32.3187 205.937 32.3006L205.962 35.4055C205.912 35.4055 205.861 35.4055 205.811 35.4055Z" fill="white"/>
</svg>
