<svg width="149" height="136" viewBox="0 0 149 136" fill="none" xmlns="http://www.w3.org/2000/svg">
<path d="M74.5001 82.4414C82.3373 82.4414 88.6911 76.0734 88.6911 68.2188C88.6911 60.3641 82.3359 53.9961 74.5001 53.9961C66.6643 53.9961 60.3105 60.3641 60.3105 68.2188C60.3105 76.0734 66.6617 82.4414 74.5001 82.4414Z" fill="#61DAFB"/>
<path d="M74.5001 100.219C113.686 100.219 145.452 85.8921 145.452 68.2188C145.452 50.5454 113.686 36.2188 74.5001 36.2188C35.3145 36.2188 3.54688 50.5454 3.54688 68.2188C3.54688 85.8921 35.3145 100.219 74.5001 100.219Z" stroke="#61DAFB" stroke-width="5.333"/>
<path d="M46.8484 84.2186C66.4419 118.231 94.704 138.639 109.975 129.803C125.248 120.965 121.743 86.2292 102.15 52.2186C82.5578 18.2052 54.2944 -2.20277 39.0245 6.63457C23.752 15.4706 27.2562 50.2066 46.8484 84.2186Z" stroke="#61DAFB" stroke-width="5.333"/>
<path d="M46.849 52.2185C27.2569 86.2305 23.754 120.965 39.0239 129.802C54.2964 138.638 82.5585 118.229 102.151 84.2185C121.744 50.2052 125.248 15.4718 109.977 6.63448C94.7046 -2.20285 66.4425 18.2065 46.849 52.2185Z" stroke="#61DAFB" stroke-width="5.333"/>
</svg>
