<svg width="75" height="75" viewBox="0 0 75 75" fill="none" xmlns="http://www.w3.org/2000/svg">
<path d="M20.0032 44.5C18.4754 44.5023 16.9665 44.8379 15.5818 45.4835C14.1971 46.1292 12.9699 47.0692 11.986 48.238C11.0021 49.4068 10.2851 50.7762 9.88511 52.2507C9.48508 53.7252 9.41165 55.2693 9.66993 56.7751C9.92822 58.2809 10.512 59.7122 11.3805 60.9691C12.2491 62.226 13.3815 63.2783 14.6986 64.0524C16.0158 64.8265 17.486 65.3038 19.0067 65.4511C20.5274 65.5984 22.0619 65.412 23.5032 64.905" stroke="#DD2B1C" stroke-width="5" stroke-linecap="round" stroke-linejoin="round"/>
<path d="M10.4271 50.1161C8.33259 49.1077 6.52211 47.5936 5.15909 45.7106C3.79608 43.8275 2.92342 41.6346 2.61987 39.3299C2.31633 37.0252 2.59145 34.6811 3.42042 32.5094C4.24939 30.3376 5.6061 28.4064 7.36812 26.8901M7.47312 26.6066C6.32527 24.8889 5.82217 22.8206 6.05289 20.7676C6.28361 18.7147 7.23326 16.8096 8.73373 15.3896C10.2342 13.9696 12.1887 13.1263 14.2512 13.009C16.3138 12.8916 18.3513 13.5079 20.0031 14.7486M20.8361 14.9761C20.2778 13.7897 19.9932 12.4931 20.0034 11.1819C20.0136 9.87082 20.3183 8.57874 20.895 7.40123C21.4718 6.22371 22.3058 5.19086 23.3354 4.37902C24.365 3.56718 25.5638 2.99711 26.8434 2.71094C28.123 2.42478 29.4505 2.42983 30.7278 2.72573C32.0051 3.02164 33.1997 3.60082 34.223 4.42048C35.2464 5.24013 36.0725 6.2793 36.6403 7.46118C37.208 8.64305 37.5029 9.9374 37.5031 11.2486M37.5031 11.2486V65.4986M37.5031 11.2486C37.5033 9.9374 37.7982 8.64305 38.366 7.46118C38.9337 6.2793 39.7598 5.24013 40.7832 4.42048C41.8066 3.60082 43.0011 3.02164 44.2784 2.72573C45.5558 2.42983 46.8833 2.42478 48.1628 2.71094C49.4424 2.99711 50.6413 3.56718 51.6709 4.37902C52.7005 5.19086 53.5345 6.22371 54.1112 7.40123C54.6879 8.57874 54.9927 9.87082 55.0029 11.1819C55.013 12.4931 54.7285 13.7897 54.1701 14.9761M37.5031 65.4986C37.5031 67.3551 36.7656 69.1356 35.4529 70.4483C34.1401 71.7611 32.3596 72.4986 30.5031 72.4986C28.6466 72.4986 26.8661 71.7611 25.5534 70.4483C24.2406 69.1356 23.5031 67.3551 23.5031 65.4986M37.5031 65.4986C37.5031 67.3551 38.2406 69.1356 39.5534 70.4483C40.8661 71.7611 42.6466 72.4986 44.5031 72.4986M37.5031 19.9986C37.5031 22.7833 38.6094 25.4541 40.5785 27.4232C42.5476 29.3923 45.2183 30.4986 48.0031 30.4986M67.6381 26.8901C69.1662 28.2028 70.3922 29.8306 71.232 31.6617C72.0717 33.4929 72.5054 35.484 72.5031 37.4986C72.5031 39.9591 71.8696 42.2726 70.7531 44.2816M67.5331 26.6066C68.681 24.8889 69.1841 22.8206 68.9533 20.7676C68.7226 18.7147 67.773 16.8096 66.2725 15.3896C64.772 13.9696 62.8175 13.1263 60.755 13.009C58.6925 12.8916 56.6549 13.5079 55.0031 14.7486M60.8376 51.4986L55.0031 61.9986H69.0031L63.1686 72.4986" stroke="#DD2B1C" stroke-width="5" stroke-linecap="round" stroke-linejoin="round"/>
</svg>
