<svg width="218" height="218" viewBox="0 0 218 218" fill="none" xmlns="http://www.w3.org/2000/svg">
<path d="M57.8424 128.996C53.4045 129.003 49.0215 129.978 44.9993 131.853C40.9771 133.728 37.4126 136.459 34.5546 139.854C31.6965 143.249 29.6139 147.227 28.4519 151.51C27.2899 155.793 27.0766 160.278 27.8268 164.652C28.5771 169.026 30.2729 173.184 32.7958 176.835C35.3187 180.486 38.6079 183.542 42.434 185.791C46.2601 188.04 50.5307 189.426 54.948 189.854C59.3652 190.282 63.8226 189.74 68.009 188.268" stroke="#DD2B1C" stroke-opacity="0.1" stroke-width="14" stroke-linecap="round" stroke-linejoin="round"/>
<path d="M30.0264 145.313C23.9423 142.384 18.6833 137.986 14.724 132.516C10.7648 127.046 8.22992 120.677 7.3482 113.982C6.46647 107.287 7.26565 100.479 9.6736 94.17C12.0815 87.8615 16.0225 82.2518 21.1407 77.8474M21.4457 77.0238C18.1115 72.0345 16.6501 66.0264 17.3203 60.0631C17.9905 54.0998 20.749 48.5659 25.1075 44.4412C29.466 40.3164 35.1434 37.8668 41.1346 37.526C47.1257 37.1853 53.0443 38.9753 57.8424 42.5792M60.2621 43.24C58.6402 39.794 57.8135 36.0275 57.8432 32.219C57.8728 28.4105 58.7579 24.6573 60.4332 21.2369C62.1085 17.8165 64.531 14.8163 67.5217 12.4581C70.5125 10.0999 73.995 8.44399 77.7118 7.61274C81.4286 6.7815 85.2847 6.79618 88.995 7.65571C92.7054 8.51523 96.1752 10.1976 99.1479 12.5785C102.121 14.9594 104.52 17.978 106.169 21.411C107.819 24.8441 108.675 28.6039 108.676 32.4125M108.676 32.4125V189.996M108.676 32.4125C108.676 28.6039 109.533 24.8441 111.182 21.411C112.831 17.978 115.231 14.9594 118.204 12.5785C121.176 10.1976 124.646 8.51523 128.356 7.65571C132.067 6.79618 135.923 6.7815 139.64 7.61274C143.356 8.44399 146.839 10.0999 149.83 12.4581C152.82 14.8163 155.243 17.8165 156.918 21.2369C158.594 24.6573 159.479 28.4105 159.508 32.219C159.538 36.0275 158.711 39.794 157.089 43.24M108.676 189.996C108.676 195.389 106.533 200.56 102.72 204.374C98.907 208.187 93.7351 210.329 88.3424 210.329C82.9496 210.329 77.7778 208.187 73.9646 204.374C70.1513 200.56 68.0091 195.389 68.0091 189.996M108.676 189.996C108.676 195.389 110.818 200.56 114.631 204.374C118.444 208.187 123.616 210.329 129.009 210.329M108.676 57.8292C108.676 65.9183 111.889 73.6761 117.609 79.3959C123.329 85.1158 131.087 88.3292 139.176 88.3292M196.211 77.8474C200.649 81.6605 204.211 86.3888 206.65 91.7079C209.089 97.027 210.349 102.811 210.342 108.663C210.342 115.81 208.502 122.53 205.259 128.366M195.906 77.0238C199.24 72.0345 200.701 66.0264 200.031 60.0631C199.361 54.0998 196.602 48.5659 192.244 44.4412C187.885 40.3164 182.208 37.8668 176.217 37.526C170.226 37.1853 164.307 38.9753 159.509 42.5792M176.457 149.329L159.509 179.829H200.176L183.228 210.329" stroke="#DD2B1C" stroke-opacity="0.1" stroke-width="14" stroke-linecap="round" stroke-linejoin="round"/>
</svg>
