<svg width="194" height="204" viewBox="0 0 194 204" fill="none" xmlns="http://www.w3.org/2000/svg">
<path d="M142.333 20.3333C139.637 20.3333 137.051 19.2622 135.144 17.3556C133.238 15.449 132.167 12.863 132.167 10.1667C132.167 7.4703 133.238 4.88437 135.144 2.97775C137.051 1.07113 139.637 0 142.333 0H183C185.696 0 188.282 1.07113 190.189 2.97775C192.096 4.88437 193.167 7.4703 193.167 10.1667V50.8333C193.167 53.5297 192.096 56.1156 190.189 58.0222C188.282 59.9289 185.696 61 183 61C180.304 61 177.718 59.9289 175.811 58.0222C173.904 56.1156 172.833 53.5297 172.833 50.8333V34.709L113.938 93.6045C112.031 95.5104 109.446 96.5812 106.75 96.5812C104.054 96.5812 101.469 95.5104 99.5622 93.6045L71.1667 65.209L17.3545 119.021C15.437 120.873 12.8689 121.898 10.2033 121.875C7.53759 121.852 4.98766 120.782 3.10268 118.897C1.2177 117.012 0.148478 114.462 0.125314 111.797C0.10215 109.131 1.12689 106.563 2.97883 104.645L63.9788 43.6455C65.8854 41.7395 68.4708 40.6688 71.1667 40.6688C73.8625 40.6688 76.448 41.7395 78.3545 43.6455L106.75 72.041L158.458 20.3333H142.333ZM20.3333 162.667V193.167C20.3333 195.863 19.2622 198.449 17.3556 200.356C15.449 202.262 12.863 203.333 10.1667 203.333C7.4703 203.333 4.88437 202.262 2.97775 200.356C1.07113 198.449 0 195.863 0 193.167V162.667C0 159.97 1.07113 157.384 2.97775 155.478C4.88437 153.571 7.4703 152.5 10.1667 152.5C12.863 152.5 15.449 153.571 17.3556 155.478C19.2622 157.384 20.3333 159.97 20.3333 162.667ZM71.1667 122C71.1667 119.304 70.0955 116.718 68.1889 114.811C66.2823 112.904 63.6964 111.833 61 111.833C58.3036 111.833 55.7177 112.904 53.8111 114.811C51.9045 116.718 50.8333 119.304 50.8333 122V193.167C50.8333 195.863 51.9045 198.449 53.8111 200.356C55.7177 202.262 58.3036 203.333 61 203.333C63.6964 203.333 66.2823 202.262 68.1889 200.356C70.0955 198.449 71.1667 195.863 71.1667 193.167V122ZM111.833 132.167C114.53 132.167 117.116 133.238 119.022 135.144C120.929 137.051 122 139.637 122 142.333V193.167C122 195.863 120.929 198.449 119.022 200.356C117.116 202.262 114.53 203.333 111.833 203.333C109.137 203.333 106.551 202.262 104.644 200.356C102.738 198.449 101.667 195.863 101.667 193.167V142.333C101.667 139.637 102.738 137.051 104.644 135.144C106.551 133.238 109.137 132.167 111.833 132.167ZM172.833 91.5C172.833 88.8036 171.762 86.2177 169.856 84.3111C167.949 82.4045 165.363 81.3333 162.667 81.3333C159.97 81.3333 157.384 82.4045 155.478 84.3111C153.571 86.2177 152.5 88.8036 152.5 91.5V193.167C152.5 195.863 153.571 198.449 155.478 200.356C157.384 202.262 159.97 203.333 162.667 203.333C165.363 203.333 167.949 202.262 169.856 200.356C171.762 198.449 172.833 195.863 172.833 193.167V91.5Z" fill="#DD2B1C" fill-opacity="0.1"/>
</svg>
