<svg width="84" height="58" viewBox="0 0 84 58" fill="none" xmlns="http://www.w3.org/2000/svg">
<path d="M68.25 0C65.3897 2.73596 61.9882 4.84267 58.2645 6.1845C54.3375 6.8775 43.47 1.8375 38.115 6.9825C37.2225 7.875 36.12 8.7675 34.965 9.66C32.445 8.5575 28.56 6.8775 25.725 5.25C22.89 3.6225 15.75 0 15.75 0L0 18.375C0 18.375 3.885 23.625 6.3 27.09C7.875 29.4 9.8175 32.9175 11.0775 35.28L9.2925 37.38C8.86808 38.2299 8.71598 39.1899 8.8569 40.1294C8.99781 41.0689 9.42491 41.942 10.08 42.63C10.8382 43.2017 11.7624 43.51 12.712 43.5081C13.6616 43.5062 14.5846 43.1942 15.3405 42.6195C15.0598 42.9481 14.8474 43.3294 14.7156 43.741C14.5838 44.1526 14.5353 44.5863 14.573 45.0169C14.6106 45.4474 14.7336 45.8662 14.9348 46.2487C15.136 46.6312 15.4113 46.9698 15.7448 47.2447C16.5475 47.7098 17.4592 47.9538 18.3869 47.952C19.3147 47.9502 20.2253 47.7025 21.0263 47.2342C20.4264 47.9819 20.0982 48.9111 20.0953 49.8696C20.0925 50.8282 20.4151 51.7593 21.0105 52.5105C21.7843 52.7792 22.6098 52.865 23.4223 52.7612C24.2348 52.6573 25.0122 52.3667 25.6935 51.912C25.3524 52.7155 25.2637 53.6037 25.439 54.4588C25.6143 55.3139 26.0455 56.0956 26.6752 56.7C27.5638 57.0911 28.5367 57.2519 29.5039 57.1675C30.4711 57.083 31.4014 56.7561 32.2088 56.217L34.9178 53.7653C37.3958 56.2327 40.8135 57.7605 44.5882 57.7605L44.9085 57.7553C46.1526 57.6496 47.3445 57.2073 48.3564 56.4757C49.3682 55.7441 50.1618 54.7509 50.652 53.6025C51.4185 53.8965 52.29 54.096 53.214 54.096C54.453 54.096 55.6027 53.739 56.574 53.1248C59.6452 51.093 58.9102 49.518 58.9102 49.518C60.0023 49.9881 61.2154 50.0996 62.3749 49.8363C63.5344 49.5731 64.5804 48.9488 65.3625 48.0532C66.1752 47.2219 66.6877 46.1433 66.8189 44.9881C66.9501 43.833 66.6926 42.667 66.087 41.6745C66.1207 41.6932 66.1588 41.7023 66.1973 41.7007C68.4075 41.7007 70.329 40.4828 71.3317 38.6873C71.8271 37.4115 71.9949 36.0319 71.8197 34.6746C71.6445 33.3172 71.132 32.0255 70.329 30.9172L70.3447 30.9435C74.6497 30.1035 74.4922 27.951 76.5922 24.801C78.5781 22.2281 81.0528 20.0728 83.874 18.459L68.25 0ZM67.9875 37.065C65.6775 39.375 63.8925 38.3775 59.955 35.385C56.0175 32.3925 48.195 26.775 48.195 26.775C48.5153 28.3763 49.2555 29.7675 50.3003 30.8752C51.975 32.76 56.9625 37.065 59.325 39.27C60.795 40.635 64.575 43.365 62.37 45.465C60.165 47.565 58.4325 45.465 54.81 42.525C51.1875 39.585 43.1025 32.34 43.1025 32.34C43.059 33.0344 43.1628 33.7301 43.407 34.3816C43.6513 35.033 44.0306 35.6255 44.52 36.12C45.4125 37.17 50.4 42 52.5 44.205C54.6 46.41 56.4375 47.7225 54.6525 49.455C52.8675 51.1875 49.245 48.4575 47.25 46.41C44.1525 43.4175 38.01 37.8525 38.01 37.8525L38.0047 38.1307C38.0047 39.6217 38.5192 40.9867 39.3855 42.0682C40.8975 44.0527 43.8375 46.6252 45.6225 48.6202C47.4075 50.6152 48.4575 52.2952 45.6225 53.8702C42.7875 55.4452 38.5875 51.5603 36.75 49.6703V49.6597C36.7557 49.1403 36.5687 48.6371 36.225 48.2475C35.5958 47.6678 34.821 47.2697 33.9833 47.0959C33.1456 46.9221 32.2764 46.979 31.4685 47.2605C31.8001 46.9626 32.0658 46.5987 32.2486 46.1922C32.4315 45.7857 32.5275 45.3455 32.5305 44.8997C32.5334 44.454 32.4433 44.0125 32.2659 43.6036C32.0884 43.1947 31.8276 42.8273 31.5 42.525C30.8109 42.0029 29.9697 41.7207 29.1051 41.7217C28.2405 41.7226 27.4 42.0066 26.712 42.5303C27.0599 42.198 27.3284 41.7915 27.4977 41.3412C27.667 40.8909 27.7326 40.4082 27.6897 39.9291C27.6468 39.4499 27.4966 38.9865 27.25 38.5734C27.0035 38.1603 26.6671 37.808 26.2657 37.5428C25.3259 36.9522 24.2231 36.6748 23.1157 36.7502C22.0083 36.8257 20.9533 37.2502 20.1022 37.9627C20.671 37.2734 20.9515 36.3909 20.8849 35.4996C20.8184 34.6084 20.4101 33.7773 19.7452 33.18C18.9173 32.414 17.8646 31.935 16.7432 31.8139C15.6217 31.6929 14.4911 31.9363 13.5188 32.508L10.0275 26.6123C7.6125 22.7798 4.7775 18.7897 4.7775 18.7897L16.7475 4.24725C16.7475 4.24725 21 6.87225 24.5175 8.86725C26.25 9.86475 29.2425 11.1772 31.5 12.2273C27.93 14.9047 24.9375 17.4773 25.83 19.2623C27.4193 20.4068 29.3205 21.0383 31.2788 21.0721C33.2371 21.1058 35.1589 20.5403 36.7868 19.4513C38.874 18.0599 41.329 17.3232 43.8375 17.3355C45.6593 17.3355 47.3918 17.7135 48.9615 18.4013C51.87 20.3647 57.225 25.1947 62.1075 28.2397C68.25 32.7022 69.4575 35.5897 67.9875 37.0597V37.065Z" fill="#DD2B1C"/>
</svg>
