<svg width="244" height="168" viewBox="0 0 244 168" fill="none" xmlns="http://www.w3.org/2000/svg">
<path d="M198.25 0C189.942 7.94733 180.061 14.0668 169.244 17.9645C157.837 19.9775 126.27 5.3375 110.715 20.2825C108.123 22.875 104.92 25.4675 101.565 28.06C94.245 24.8575 82.96 19.9775 74.725 15.25C66.49 10.5225 45.75 0 45.75 0L0 53.375C0 53.375 11.285 68.625 18.3 78.69C22.875 85.4 28.5175 95.6175 32.1775 102.48L26.9925 108.58C25.7597 111.049 25.3178 113.837 25.7272 116.566C26.1365 119.295 27.3771 121.832 29.28 123.83C31.4825 125.491 34.1671 126.386 36.9254 126.381C39.6837 126.375 42.3647 125.469 44.5605 123.799C43.7452 124.754 43.1281 125.862 42.7453 127.057C42.3626 128.253 42.2217 129.513 42.331 130.763C42.4403 132.014 42.7976 133.23 43.382 134.341C43.9664 135.452 44.7662 136.436 45.7348 137.235C48.0666 138.586 50.7147 139.294 53.4096 139.289C56.1045 139.284 58.7498 138.564 61.0763 137.204C59.3339 139.376 58.3805 142.075 58.3721 144.859C58.3638 147.644 59.3011 150.348 61.0305 152.531C63.2781 153.311 65.676 153.56 68.0362 153.259C70.3963 152.957 72.6544 152.113 74.6335 150.792C73.6428 153.126 73.3849 155.706 73.8943 158.19C74.4036 160.674 75.6559 162.944 77.4852 164.7C80.0664 165.836 82.8923 166.303 85.7018 166.058C88.5112 165.813 91.2135 164.863 93.5588 163.297L101.428 156.175C108.626 163.343 118.553 167.781 129.518 167.781L130.449 167.765C134.062 167.458 137.525 166.174 140.464 164.048C143.403 161.923 145.708 159.038 147.132 155.702C149.358 156.557 151.89 157.136 154.574 157.136C158.173 157.136 161.513 156.099 164.334 154.315C173.255 148.413 171.12 143.838 171.12 143.838C174.293 145.204 177.816 145.527 181.184 144.763C184.552 143.998 187.591 142.185 189.863 139.583C192.223 137.168 193.712 134.035 194.093 130.68C194.474 127.324 193.726 123.937 191.967 121.054C192.065 121.109 192.176 121.135 192.287 121.131C198.708 121.131 204.289 117.593 207.202 112.377C208.641 108.671 209.128 104.664 208.619 100.721C208.11 96.7787 206.622 93.0264 204.289 89.8073L204.335 89.8835C216.84 87.4435 216.382 81.191 222.482 72.041C228.251 64.5672 235.439 58.3067 243.634 53.619L198.25 0ZM197.488 107.665C190.777 114.375 185.592 111.477 174.155 102.785C162.717 94.0925 139.995 77.775 139.995 77.775C140.925 82.4263 143.076 86.4675 146.11 89.6852C150.975 95.16 165.463 107.665 172.325 114.07C176.595 118.035 187.575 125.965 181.17 132.065C174.765 138.165 169.732 132.065 159.21 123.525C148.688 114.985 125.202 93.94 125.202 93.94C125.076 95.957 125.378 97.978 126.087 99.8703C126.797 101.763 127.898 103.483 129.32 104.92C131.912 107.97 146.4 122 152.5 128.405C158.6 134.81 163.938 138.622 158.753 143.655C153.568 148.688 143.045 140.758 137.25 134.81C128.253 126.118 110.41 109.952 110.41 109.952L110.395 110.761C110.395 115.092 111.889 119.057 114.405 122.198C118.798 127.963 127.337 135.435 132.522 141.23C137.707 147.025 140.757 151.905 132.522 156.48C124.287 161.055 112.088 149.77 106.75 144.28V144.25C106.767 142.741 106.223 141.279 105.225 140.147C103.397 138.464 101.147 137.307 98.7134 136.802C96.2801 136.298 93.7553 136.463 91.4085 137.281C92.3716 136.415 93.1434 135.358 93.6746 134.177C94.2058 132.996 94.4846 131.718 94.4932 130.423C94.5018 129.128 94.2401 127.846 93.7246 126.658C93.2092 125.47 92.4515 124.403 91.5 123.525C89.4982 122.008 87.0549 121.189 84.5434 121.191C82.032 121.194 79.5905 122.019 77.592 123.54C78.6025 122.575 79.3826 121.395 79.8743 120.086C80.3659 118.778 80.5566 117.376 80.4321 115.984C80.3075 114.593 79.871 113.247 79.1549 112.047C78.4388 110.847 77.4616 109.823 76.2957 109.053C73.5657 107.337 70.3623 106.531 67.1456 106.751C63.9288 106.97 60.8643 108.203 58.3923 110.273C60.0445 108.27 60.859 105.707 60.6658 103.118C60.4725 100.529 59.2864 98.115 57.3552 96.38C54.9502 94.1548 51.8925 92.7634 48.6349 92.4119C45.3773 92.0603 42.0932 92.7672 39.2687 94.428L29.1275 77.3023C22.1125 66.1698 13.8775 54.5798 13.8775 54.5798L48.6475 12.3372C48.6475 12.3372 61 19.9623 71.2175 25.7573C76.25 28.6548 84.9425 32.4673 91.5 35.5173C81.13 43.2948 72.4375 50.7673 75.03 55.9523C79.6466 59.2769 85.1691 61.1112 90.8574 61.2093C96.5458 61.3075 102.128 59.6647 106.857 56.5012C112.92 52.4596 120.051 50.3197 127.338 50.3555C132.629 50.3555 137.662 51.4535 142.221 53.4513C150.67 59.1548 166.225 73.1847 180.408 82.0297C198.25 94.9922 201.757 103.38 197.488 107.65V107.665Z" fill="#DD2B1C" fill-opacity="0.1"/>
</svg>
