<svg width="244" height="244" viewBox="0 0 244 244" fill="none" xmlns="http://www.w3.org/2000/svg">
<path d="M220.081 25.6448C220 25.2537 219.809 24.8939 219.531 24.6077C219.252 24.3215 218.898 24.1208 218.509 24.0292C192.593 17.691 132.727 40.2753 100.259 72.7196C94.4729 78.4588 89.1965 84.6903 84.4898 91.3437C74.482 90.4382 64.4742 91.2007 55.9533 94.9179C31.8916 105.498 24.8909 133.129 22.937 144.99C22.8311 145.64 22.8764 146.306 23.0692 146.936C23.262 147.565 23.5971 148.142 24.0488 148.621C24.5004 149.101 25.0563 149.469 25.6734 149.699C26.2905 149.929 26.9522 150.014 27.6073 149.947L66.2422 145.705C66.2687 148.619 66.4437 151.53 66.7665 154.426C66.9681 156.428 67.8613 158.297 69.2922 159.711L84.2515 174.671C85.6671 176.103 87.5379 176.996 89.5414 177.196C92.4202 177.517 95.3135 177.692 98.2101 177.721L93.9734 216.322C93.9073 216.976 93.9925 217.637 94.2224 218.253C94.4523 218.869 94.8208 219.424 95.2994 219.875C95.778 220.326 96.3538 220.661 96.9825 220.854C97.6111 221.047 98.2757 221.093 98.9249 220.988C110.791 219.082 138.48 212.081 148.997 188.024C152.715 179.493 153.477 169.538 152.619 159.578C159.292 154.876 165.541 149.599 171.296 143.808C203.883 111.402 226.324 52.8517 220.081 25.6448ZM142.33 101.828C139.484 98.9824 137.545 95.3565 136.76 91.409C135.974 87.4615 136.377 83.3697 137.917 79.6511C139.457 75.9325 142.065 72.7541 145.412 70.5179C148.758 68.2817 152.693 67.0881 156.718 67.0881C160.743 67.0881 164.677 68.2817 168.024 70.5179C171.37 72.7541 173.978 75.9325 175.518 79.6511C177.058 83.3697 177.461 87.4615 176.676 91.409C175.89 95.3565 173.951 98.9824 171.105 101.828C169.217 103.72 166.975 105.221 164.506 106.245C162.037 107.269 159.39 107.796 156.718 107.796C154.045 107.796 151.398 107.269 148.93 106.245C146.461 105.221 144.218 103.72 142.33 101.828Z" stroke="#DD2B1C" stroke-opacity="0.1" stroke-width="16" stroke-linecap="round" stroke-linejoin="round"/>
<path d="M52.2503 167.75C47.4995 168.333 43.0798 170.487 39.6929 173.869C31.2959 182.295 30.5 213.5 30.5 213.5C30.5 213.5 61.7244 212.704 70.1262 204.298C73.522 200.916 75.6794 196.489 76.25 191.731" stroke="#DD2B1C" stroke-opacity="0.1" stroke-width="16" stroke-linecap="round" stroke-linejoin="round"/>
</svg>
