<svg width="84" height="84" viewBox="0 0 84 84" fill="none" xmlns="http://www.w3.org/2000/svg">
<path d="M75.7657 8.82629C75.7378 8.69165 75.672 8.56778 75.5761 8.46925C75.4802 8.37072 75.3581 8.30163 75.2243 8.27012C66.3025 6.08809 45.693 13.863 34.5154 25.0324C32.5234 27.0082 30.7069 29.1534 29.0866 31.4439C25.6413 31.1322 22.196 31.3947 19.2625 32.6744C10.979 36.3166 8.56894 45.8289 7.89628 49.9125C7.85984 50.1362 7.8754 50.3654 7.94177 50.5821C8.00814 50.7989 8.12354 50.9975 8.27901 51.1625C8.43448 51.3275 8.62586 51.4544 8.83831 51.5336C9.05076 51.6127 9.27857 51.6418 9.50409 51.6187L22.8046 50.1586C22.8138 51.1618 22.874 52.1638 22.9851 53.1609C23.0545 53.8501 23.362 54.4935 23.8546 54.9804L29.0046 60.1303C29.4919 60.6232 30.1359 60.9308 30.8257 60.9998C31.8167 61.1103 32.8128 61.1705 33.81 61.1803L32.3514 74.4693C32.3287 74.6946 32.358 74.922 32.4371 75.1341C32.5163 75.3462 32.6432 75.5373 32.8079 75.6925C32.9727 75.8478 33.1709 75.963 33.3873 76.0295C33.6038 76.0959 33.8326 76.1116 34.056 76.0755C38.1412 75.4193 47.6732 73.0092 51.2941 64.7273C52.5738 61.7906 52.8363 58.3633 52.541 54.9344C54.8382 53.3156 56.9896 51.4991 58.9706 49.5056C70.1892 38.3493 77.9149 18.1926 75.7657 8.82629ZM48.9989 35.0533C48.019 34.0737 47.3516 32.8254 47.0812 31.4664C46.8107 30.1075 46.9494 28.6988 47.4795 27.4186C48.0097 26.1385 48.9076 25.0443 50.0597 24.2744C51.2118 23.5046 52.5663 23.0937 53.9519 23.0937C55.3375 23.0937 56.692 23.5046 57.8441 24.2744C58.9962 25.0443 59.8941 26.1385 60.4243 27.4186C60.9544 28.6988 61.0931 30.1075 60.8226 31.4664C60.5522 32.8254 59.8848 34.0737 58.905 35.0533C58.255 35.7046 57.483 36.2214 56.6331 36.574C55.7832 36.9265 54.872 37.108 53.9519 37.108C53.0318 37.108 52.1207 36.9265 51.2708 36.574C50.4208 36.2214 49.6488 35.7046 48.9989 35.0533Z" stroke="#DD2B1C" stroke-width="6" stroke-linecap="round" stroke-linejoin="round"/>
<path d="M17.9878 57.75C16.3523 57.9508 14.8307 58.6922 13.6648 59.8566C10.774 62.7572 10.5 73.5 10.5 73.5C10.5 73.5 21.2494 73.226 24.1418 70.332C25.3109 69.1678 26.0536 67.6437 26.25 66.0056" stroke="#DD2B1C" stroke-width="6" stroke-linecap="round" stroke-linejoin="round"/>
</svg>
