<svg width="204" height="204" viewBox="0 0 204 204" fill="none" xmlns="http://www.w3.org/2000/svg">
<path d="M101.667 0C105.483 0 109.244 0.206723 112.952 0.620168C114.279 0.767029 115.564 1.17384 116.734 1.81738C117.904 2.46092 118.935 3.32858 119.77 4.37083C120.604 5.41307 121.226 6.60949 121.598 7.89177C121.97 9.17404 122.086 10.5171 121.939 11.8442C121.792 13.1713 121.385 14.4564 120.742 15.6263C120.098 16.7962 119.231 17.8278 118.188 18.6624C117.146 19.497 115.95 20.118 114.667 20.4902C113.385 20.8624 112.042 20.9784 110.715 20.8315C93.9608 18.9572 77.0382 22.3356 62.2879 30.4992C47.5376 38.6629 35.6886 51.2084 28.3799 66.4005C21.0712 81.5926 18.664 98.6804 21.4912 115.3C24.3185 131.92 32.2404 147.251 44.1614 159.172C56.0823 171.093 71.413 179.015 88.033 181.842C104.653 184.669 121.741 182.262 136.933 174.953C152.125 167.645 164.67 155.796 172.834 141.045C180.998 126.295 184.376 109.373 182.502 92.6183C182.355 91.2912 182.471 89.9482 182.843 88.6659C183.215 87.3836 183.836 86.1872 184.671 85.145C186.356 83.0401 188.809 81.6909 191.489 81.3943C194.169 81.0977 196.858 81.878 198.962 83.5634C200.005 84.398 200.872 85.4296 201.516 86.5995C202.159 87.7694 202.566 89.0546 202.713 90.3817C203.12 94.0891 203.327 97.8508 203.333 101.667C203.333 157.817 157.817 203.333 101.667 203.333C45.5162 203.333 0 157.817 0 101.667C0 45.5162 45.5162 0 101.667 0ZM101.341 59.7495C102.011 62.3595 101.618 65.1288 100.247 67.4488C98.8765 69.7688 96.6409 71.4498 94.0315 72.1223C86.8627 74.0002 80.622 78.4223 76.474 84.5634C72.3261 90.7044 70.5541 98.1449 71.489 105.496C72.4238 112.848 76.0014 119.608 81.5543 124.516C87.1072 129.423 94.256 132.143 101.667 132.167C108.431 132.17 115.004 129.924 120.352 125.783C125.7 121.642 129.52 115.841 131.211 109.292C131.932 106.733 133.626 104.559 135.93 103.234C138.234 101.909 140.966 101.54 143.539 102.204C146.113 102.869 148.324 104.515 149.698 106.79C151.073 109.065 151.502 111.788 150.894 114.375C147.775 126.33 140.41 136.741 130.176 143.663C119.941 150.584 107.536 153.543 95.2795 151.987C83.0226 150.43 71.7516 144.464 63.5722 135.204C55.3928 125.943 50.8645 114.022 50.8333 101.667C50.8316 90.3958 54.5757 79.4439 61.477 70.533C68.3783 61.622 78.0453 55.2574 88.9583 52.4397C90.2514 52.1064 91.5974 52.0311 92.9196 52.2181C94.2417 52.4051 95.5141 52.8507 96.664 53.5295C97.8139 54.2083 98.8188 55.107 99.6214 56.1743C100.424 57.2415 101.008 58.4564 101.341 59.7495ZM167.791 1.29117C169.646 2.06057 171.233 3.36249 172.349 5.0326C173.465 6.7027 174.062 8.66611 174.063 10.675V29.28H192.658C194.669 29.2804 196.634 29.8769 198.305 30.9941C199.977 32.1112 201.28 33.6989 202.049 35.5563C202.818 37.4138 203.02 39.4576 202.628 41.4295C202.235 43.4013 201.268 45.2127 199.846 46.6345L163.887 82.5533C161.98 84.4601 159.395 85.5316 156.699 85.5322H132.167L113.582 104.127C111.674 106.035 109.087 107.106 106.389 107.106C103.691 107.106 101.104 106.035 99.1962 104.127C97.2885 102.219 96.2168 99.6319 96.2168 96.9341C96.2168 94.2362 97.2885 91.6488 99.1962 89.7412L117.791 71.1667V46.6243C117.792 43.9282 118.863 41.3427 120.77 39.4365L156.709 3.48717C158.131 2.06452 159.943 1.09554 161.915 0.702836C163.888 0.310128 165.932 0.511334 167.791 1.281M153.73 35.2072L138.124 50.8333V65.209H152.5L168.116 49.6032H163.897C161.2 49.6032 158.615 48.532 156.708 46.6254C154.801 44.7188 153.73 42.1329 153.73 39.4365V35.2072Z" fill="#DD2B1C" fill-opacity="0.1"/>
</svg>
