<svg width="70" height="70" viewBox="0 0 70 70" fill="none" xmlns="http://www.w3.org/2000/svg">
<path d="M35 0C36.3137 0 37.6087 0.0711671 38.885 0.2135C39.3419 0.264059 39.7843 0.40411 40.187 0.625656C40.5898 0.847202 40.945 1.14591 41.2323 1.50471C41.5196 1.86352 41.7334 2.2754 41.8615 2.71684C41.9896 3.15828 42.0296 3.62063 41.979 4.0775C41.9284 4.53437 41.7884 4.97681 41.5668 5.37955C41.3453 5.78229 41.0466 6.13746 40.6878 6.42476C40.329 6.71207 39.9171 6.92588 39.4757 7.05401C39.0342 7.18214 38.5719 7.22206 38.115 7.1715C32.3472 6.52625 26.5213 7.68929 21.4434 10.4997C16.3654 13.3102 12.2862 17.6291 9.77013 22.8592C7.25402 28.0893 6.42531 33.9719 7.39862 39.6936C8.37193 45.4152 11.0992 50.693 15.2031 54.7969C19.307 58.9008 24.5848 61.6281 30.3064 62.6014C36.0281 63.5747 41.9107 62.746 47.1408 60.2299C52.3709 57.7138 56.6898 53.6346 59.5003 48.5566C62.3107 43.4787 63.4737 37.6528 62.8285 31.885C62.7779 31.4281 62.8179 30.9658 62.946 30.5243C63.0741 30.0829 63.2879 29.671 63.5752 29.3122C64.1555 28.5876 64.9998 28.1231 65.9225 28.021C66.8452 27.9189 67.7706 28.1875 68.4953 28.7677C68.8541 29.055 69.1528 29.4102 69.3743 29.813C69.5959 30.2157 69.7359 30.6581 69.7865 31.115C69.9265 32.3913 69.9977 33.6863 70 35C70 54.3305 54.3305 70 35 70C15.6695 70 0 54.3305 0 35C0 15.6695 15.6695 0 35 0ZM34.888 20.5695C35.1187 21.468 34.9832 22.4214 34.5113 23.2201C34.0394 24.0188 33.2698 24.5975 32.3715 24.829C29.9035 25.4755 27.7551 26.9978 26.3271 29.112C24.8991 31.2261 24.2891 33.7876 24.611 36.3184C24.9328 38.8493 26.1644 41.1766 28.0761 42.8661C29.9877 44.5555 32.4488 45.4917 35 45.5C37.3286 45.501 39.5914 44.7279 41.4326 43.3023C43.2738 41.8768 44.5889 39.8796 45.171 37.625C45.4191 36.7442 46.0022 35.9957 46.7955 35.5396C47.5888 35.0836 48.5292 34.9563 49.4151 35.1851C50.3011 35.4139 51.0622 35.9806 51.5355 36.7638C52.0087 37.5469 52.1564 38.4843 51.947 39.375C50.8733 43.4908 48.3379 47.0749 44.8145 49.4577C41.2912 51.8406 37.0208 52.8592 32.8012 52.3233C28.5816 51.7873 24.7014 49.7335 21.8855 46.5456C19.0697 43.3576 17.5107 39.2535 17.5 35C17.4994 31.1199 18.7884 27.3496 21.1642 24.2819C23.5401 21.2141 26.8681 19.023 30.625 18.053C31.0702 17.9383 31.5335 17.9123 31.9887 17.9767C32.4439 18.0411 32.8819 18.1945 33.2778 18.4282C33.6736 18.6619 34.0196 18.9713 34.2959 19.3387C34.5722 19.7061 34.7734 20.1243 34.888 20.5695ZM57.764 0.4445C58.4028 0.709377 58.9489 1.15758 59.3332 1.73253C59.7176 2.30749 59.923 2.98342 59.9235 3.675V10.08H66.325C67.0171 10.0801 67.6937 10.2855 68.2691 10.6701C68.8445 11.0547 69.293 11.6013 69.5579 12.2407C69.8227 12.8802 69.892 13.5838 69.757 14.2626C69.6221 14.9414 69.2888 15.565 68.7995 16.0545L56.42 28.42C55.7638 29.0764 54.8737 29.4453 53.9455 29.4455H45.5L39.102 35.847C38.4453 36.5037 37.5545 36.8727 36.6258 36.8727C35.697 36.8727 34.8062 36.5037 34.1495 35.847C33.4928 35.1903 33.1238 34.2995 33.1238 33.3708C33.1238 32.442 33.4928 31.5512 34.1495 30.8945L40.551 24.5V16.051C40.5512 15.1228 40.9201 14.2327 41.5765 13.5765L53.949 1.2005C54.4385 0.710735 55.0622 0.377154 55.7413 0.24196C56.4204 0.106765 57.1243 0.176033 57.764 0.441M52.9235 12.1205L47.551 17.5V22.449H52.5L57.876 17.0765H56.4235C55.4952 17.0765 54.605 16.7078 53.9486 16.0514C53.2922 15.395 52.9235 14.5048 52.9235 13.5765V12.1205Z" fill="#DD2B1C"/>
</svg>
