<svg width="27" height="27" viewBox="0 0 27 27" fill="none" xmlns="http://www.w3.org/2000/svg">
<path d="M11.343 17.238L7.599 13.494C7.458 13.354 7.2855 13.279 7.0815 13.269C6.8775 13.259 6.696 13.334 6.537 13.494C6.378 13.654 6.298 13.831 6.297 14.025C6.296 14.219 6.376 14.396 6.537 14.556L10.494 18.513C10.736 18.756 11.0185 18.8775 11.3415 18.8775C11.6645 18.8775 11.9475 18.756 12.1905 18.513L20.406 10.299C20.546 10.158 20.621 9.9855 20.631 9.7815C20.641 9.5775 20.566 9.396 20.406 9.237C20.246 9.078 20.069 8.998 19.875 8.997C19.681 8.996 19.504 9.076 19.344 9.237L11.343 17.238ZM13.5045 27C11.6385 27 9.8835 26.646 8.2395 25.938C6.5965 25.229 5.167 24.267 3.951 23.052C2.735 21.837 1.7725 20.409 1.0635 18.768C0.3545 17.127 0 15.3725 0 13.5045C0 11.6365 0.3545 9.8815 1.0635 8.2395C1.7715 6.5965 2.732 5.167 3.945 3.951C5.158 2.735 6.5865 1.7725 8.2305 1.0635C9.8745 0.3545 11.6295 0 13.4955 0C15.3615 0 17.1165 0.3545 18.7605 1.0635C20.4035 1.7715 21.833 2.7325 23.049 3.9465C24.265 5.1605 25.2275 6.589 25.9365 8.232C26.6455 9.875 27 11.6295 27 13.4955C27 15.3615 26.646 17.1165 25.938 18.7605C25.23 20.4045 24.268 21.834 23.052 23.049C21.836 24.264 20.408 25.2265 18.768 25.9365C17.128 26.6465 15.3735 27.001 13.5045 27Z" fill="#DD2B1C"/>
</svg>
