<svg width="15" height="15" viewBox="0 0 15 15" fill="none" xmlns="http://www.w3.org/2000/svg">
<path d="M6.30167 9.57667L4.22167 7.49667C4.14333 7.41889 4.0475 7.37722 3.93417 7.37167C3.82083 7.36611 3.72 7.40778 3.63167 7.49667C3.54333 7.58556 3.49889 7.68389 3.49833 7.79167C3.49778 7.89944 3.54222 7.99778 3.63167 8.08667L5.83 10.285C5.96444 10.42 6.12139 10.4875 6.30083 10.4875C6.48028 10.4875 6.6375 10.42 6.7725 10.285L11.3367 5.72167C11.4144 5.64333 11.4561 5.5475 11.4617 5.43417C11.4672 5.32083 11.4256 5.22 11.3367 5.13167C11.2478 5.04333 11.1494 4.99889 11.0417 4.99833C10.9339 4.99778 10.8356 5.04222 10.7467 5.13167L6.30167 9.57667ZM7.5025 15C6.46583 15 5.49083 14.8033 4.5775 14.41C3.66472 14.0161 2.87056 13.4817 2.195 12.8067C1.51944 12.1317 0.984722 11.3383 0.590833 10.4267C0.196945 9.515 0 8.54028 0 7.5025C0 6.46472 0.196945 5.48972 0.590833 4.5775C0.984167 3.66472 1.51778 2.87056 2.19167 2.195C2.86556 1.51944 3.65917 0.984722 4.5725 0.590833C5.48583 0.196945 6.46083 0 7.4975 0C8.53417 0 9.50917 0.196945 10.4225 0.590833C11.3353 0.984167 12.1294 1.51806 12.805 2.1925C13.4806 2.86694 14.0153 3.66056 14.4092 4.57333C14.8031 5.48611 15 6.46083 15 7.4975C15 8.53417 14.8033 9.50917 14.41 10.4225C14.0167 11.3358 13.4822 12.13 12.8067 12.805C12.1311 13.48 11.3378 14.0147 10.4267 14.4092C9.51556 14.8036 8.54083 15.0006 7.5025 15Z" fill="#DD2B1C"/>
</svg>
