<svg width="63" height="77" viewBox="0 0 63 77" fill="none" xmlns="http://www.w3.org/2000/svg">
<path d="M31.5 9.8945L14.175 27.2195C10.7489 30.646 8.41573 35.0115 7.47059 39.7639C6.52546 44.5164 7.01078 49.4424 8.86521 53.9191C10.7196 58.3957 13.8599 62.2219 17.8888 64.9139C21.9178 67.6059 26.6545 69.0427 31.5 69.0427C36.3456 69.0427 41.0823 67.6059 45.1112 64.9139C49.1402 62.2219 52.2804 58.3957 54.1348 53.9191C55.9892 49.4424 56.4746 44.5164 55.5294 39.7639C54.5843 35.0115 52.2512 30.646 48.825 27.2195L31.5 9.8945ZM31.5 0L53.774 22.274C58.1793 26.6794 61.1794 32.2921 62.3948 38.4025C63.6102 44.5129 62.9864 50.8465 60.6022 56.6023C58.218 62.3582 54.1806 67.2778 49.0004 70.739C43.8203 74.2003 37.7301 76.0477 31.5 76.0477C25.2699 76.0477 19.1797 74.2003 13.9996 70.739C8.81945 67.2778 4.78202 62.3582 2.39785 56.6023C0.013674 50.8465 -0.610154 44.5129 0.60525 38.4025C1.82065 32.2921 4.8207 26.6794 9.22602 22.274L31.5 0ZM31.5 62.048V27.048C36.1413 27.048 40.5925 28.8917 43.8744 32.1736C47.1563 35.4555 49 39.9067 49 44.548C49 49.1893 47.1563 53.6405 43.8744 56.9224C40.5925 60.2043 36.1413 62.048 31.5 62.048Z" fill="#DD2B1C"/>
</svg>
