<svg width="183" height="221" viewBox="0 0 183 221" fill="none" xmlns="http://www.w3.org/2000/svg">
<path d="M91.5 28.7412L41.175 79.0662C31.2229 89.0193 24.4457 101.7 21.7003 115.505C18.9549 129.31 20.3647 143.618 25.7513 156.622C31.138 169.626 40.2596 180.74 51.9627 188.559C63.6659 196.379 77.4249 200.553 91.5 200.553C105.575 200.553 119.334 196.379 131.037 188.559C142.741 180.74 151.862 169.626 157.249 156.622C162.635 143.618 164.045 129.31 161.3 115.505C158.554 101.7 151.777 89.0193 141.825 79.0662L91.5 28.7412ZM91.5 0L156.201 64.7007C168.997 77.4972 177.712 93.8009 181.242 111.55C184.772 129.299 182.96 147.697 176.035 164.416C169.109 181.136 157.382 195.426 142.335 205.48C127.288 215.534 109.597 220.901 91.5 220.901C73.4031 220.901 55.7126 215.534 40.6655 205.48C25.6184 195.426 13.8906 181.136 6.96517 164.416C0.0397196 147.697 -1.77235 129.299 1.75811 111.55C5.28856 93.8009 14.003 77.4972 26.7994 64.7007L91.5 0ZM91.5 180.235V78.568C104.982 78.568 117.912 83.9236 127.445 93.4567C136.978 102.99 142.333 115.919 142.333 129.401C142.333 142.883 136.978 155.813 127.445 165.346C117.912 174.879 104.982 180.235 91.5 180.235Z" fill="#DD2B1C" fill-opacity="0.1"/>
</svg>
