<svg width="74" height="71" viewBox="0 0 74 71" fill="none" xmlns="http://www.w3.org/2000/svg">
<path d="M34.01 19.5805C35.34 17.19 36.005 16 36.999 16C37.993 16 38.658 17.19 39.988 19.5805L40.331 20.1965C40.709 20.8755 40.898 21.2115 41.192 21.4355C41.4895 21.6595 41.857 21.7435 42.592 21.908L43.257 22.062C45.84 22.6465 47.1315 22.937 47.4395 23.924C47.7475 24.911 46.8655 25.9435 45.105 28.0015L44.65 28.5335C44.1495 29.118 43.8975 29.4085 43.7855 29.7725C43.6735 30.1365 43.712 30.525 43.7855 31.3055L43.8555 32.016C44.1215 34.7635 44.2545 36.139 43.453 36.748C42.648 37.357 41.437 36.8005 39.0185 35.6875L38.3955 35.4005C37.706 35.0855 37.363 34.928 36.999 34.928C36.635 34.928 36.292 35.0855 35.6025 35.4005L34.9795 35.6875C32.561 36.804 31.35 37.357 30.545 36.748C29.74 36.139 29.8765 34.7635 30.1425 32.016L30.2125 31.3055C30.286 30.525 30.3245 30.1365 30.2125 29.7725C30.1005 29.4085 29.8485 29.118 29.348 28.5335L28.893 28.0015C27.1325 25.9435 26.2505 24.9145 26.5585 23.924C26.8665 22.937 28.158 22.6465 30.741 22.062L31.406 21.908C32.141 21.7435 32.5085 21.663 32.806 21.4355C33.1 21.2115 33.289 20.8755 33.667 20.1965L34.01 19.5805Z" stroke="#DD2B1C" stroke-width="4"/>
<path d="M61.499 26.5C61.499 29.7174 60.8653 32.9033 59.6341 35.8757C58.4028 38.8482 56.5982 41.5491 54.3231 43.8241C52.0481 46.0992 49.3472 47.9038 46.3748 49.135C43.4023 50.3663 40.2164 51 36.999 51C33.7816 51 30.5958 50.3663 27.6233 49.135C24.6508 47.9038 21.9499 46.0992 19.6749 43.8241C17.3999 41.5491 15.5952 38.8482 14.364 35.8757C13.1327 32.9033 12.499 29.7174 12.499 26.5C12.499 20.0022 15.0803 13.7705 19.6749 9.17588C24.2695 4.58124 30.5012 2 36.999 2C43.4968 2 49.7285 4.58124 54.3231 9.17588C58.9178 13.7705 61.499 20.0022 61.499 26.5Z" stroke="#DD2B1C" stroke-width="4"/>
<path d="M14.0952 37L5.47119 45.9285C3.58119 47.885 2.63619 48.865 2.30719 49.6945C1.56169 51.581 2.20219 53.6775 3.82269 54.6715C4.53669 55.1055 5.82119 55.242 8.39019 55.515C9.84269 55.669 10.5672 55.7425 11.1727 55.977C11.85 56.2389 12.4623 56.645 12.967 57.1672C13.4716 57.6893 13.8566 58.3151 14.0952 59.001C14.3192 59.631 14.3927 60.38 14.5432 61.885C14.8022 64.545 14.9352 65.875 15.3552 66.61C16.3142 68.29 18.3407 68.948 20.1607 68.178C20.9657 67.842 21.9107 66.8655 23.8007 64.9055L36.9992 51.238L50.1977 64.9055C52.0877 66.8655 53.0327 67.842 53.8377 68.178C55.6577 68.948 57.6842 68.29 58.6432 66.61C59.0632 65.875 59.1927 64.545 59.4552 61.885C59.6057 60.38 59.6792 59.631 59.9032 59.001C60.4072 57.594 61.4642 56.4985 62.8257 55.977C63.4312 55.7425 64.1557 55.669 65.6082 55.515C68.1772 55.242 69.4617 55.1055 70.1757 54.6715C71.7962 53.6775 72.4367 51.581 71.6912 49.6945C71.3622 48.865 70.4172 47.885 68.5272 45.9285L59.9032 37" stroke="#DD2B1C" stroke-width="4"/>
</svg>
