<svg width="216" height="206" viewBox="0 0 216 206" fill="none" xmlns="http://www.w3.org/2000/svg">
<path d="M98.9816 57.0685C102.845 50.1246 104.777 46.668 107.664 46.668C110.551 46.668 112.483 50.1246 116.346 57.0685L117.343 58.8578C118.441 60.8301 118.99 61.8061 119.844 62.4568C120.708 63.1075 121.775 63.3515 123.91 63.8293L125.842 64.2766C133.345 65.9745 137.096 66.8183 137.991 69.6853C138.886 72.5523 136.324 75.5515 131.21 81.5295L129.888 83.0748C128.434 84.7726 127.702 85.6165 127.377 86.6738C127.052 87.7311 127.164 88.8596 127.377 91.1268L127.58 93.1906C128.353 101.171 128.739 105.167 126.411 106.936C124.073 108.705 120.555 107.088 113.53 103.855L111.72 103.022C109.718 102.107 108.721 101.649 107.664 101.649C106.607 101.649 105.61 102.107 103.607 103.022L101.798 103.855C94.7727 107.099 91.255 108.705 88.9166 106.936C86.5783 105.167 86.9748 101.171 87.7475 93.1906L87.9508 91.1268C88.1643 88.8596 88.2761 87.7311 87.9508 86.6738C87.6255 85.6165 86.8935 84.7726 85.4396 83.0748L84.118 81.5295C79.0041 75.5515 76.4421 72.5625 77.3368 69.6853C78.2315 66.8183 81.983 65.9745 89.486 64.2766L91.4177 63.8293C93.5527 63.3515 94.6201 63.1176 95.4843 62.4568C96.3383 61.8061 96.8873 60.8301 97.9853 58.8578L98.9816 57.0685Z" stroke="#DD2B1C" stroke-opacity="0.1" stroke-width="12"/>
<path d="M178.83 77.1667C178.83 86.5124 176.99 95.7666 173.413 104.401C169.837 113.035 164.595 120.881 157.986 127.489C151.378 134.098 143.532 139.34 134.898 142.916C126.264 146.493 117.009 148.333 107.664 148.333C98.318 148.333 89.0638 146.493 80.4294 142.916C71.7951 139.34 63.9497 134.098 57.3413 127.489C50.7329 120.881 45.4908 113.035 41.9143 104.401C38.3378 95.7666 36.4971 86.5124 36.4971 77.1667C36.4971 58.2921 43.995 40.1906 57.3413 26.8442C70.6876 13.4979 88.7892 6 107.664 6C126.538 6 144.64 13.4979 157.986 26.8442C171.332 40.1906 178.83 58.2921 178.83 77.1667Z" stroke="#DD2B1C" stroke-opacity="0.1" stroke-width="12"/>
<path d="M41.1335 107.668L16.0828 133.603C10.5928 139.286 7.8478 142.133 6.89214 144.542C4.72664 150.022 6.58713 156.112 11.2943 158.999C13.3683 160.26 17.0995 160.657 24.5618 161.45C28.781 161.897 30.8855 162.11 32.6443 162.792C34.6118 163.552 36.3903 164.732 37.8562 166.249C39.3222 167.766 40.4404 169.583 41.1335 171.576C41.7841 173.406 41.9976 175.581 42.4348 179.953C43.1871 187.68 43.5735 191.543 44.7935 193.678C47.5791 198.558 53.4656 200.469 58.7523 198.233C61.0906 197.257 63.8356 194.42 69.3256 188.727L107.664 149.026L146.003 188.727C151.493 194.42 154.238 197.257 156.576 198.233C161.863 200.469 167.749 198.558 170.535 193.678C171.755 191.543 172.131 187.68 172.893 179.953C173.331 175.581 173.544 173.406 174.195 171.576C175.659 167.489 178.729 164.306 182.684 162.792C184.443 162.11 186.547 161.897 190.766 161.45C198.229 160.657 201.96 160.26 204.034 158.999C208.741 156.112 210.602 150.022 208.436 144.542C207.48 142.133 204.735 139.286 199.245 133.603L174.195 107.668" stroke="#DD2B1C" stroke-opacity="0.1" stroke-width="12"/>
</svg>
