<svg width="158" height="199" viewBox="0 0 158 199" fill="none" xmlns="http://www.w3.org/2000/svg">
<path d="M78.7917 7.62961L81.7908 0.614605C80.8429 0.209081 79.8227 0 78.7917 0C77.7607 0 76.7404 0.209081 75.7925 0.614605L78.7917 7.62961ZM78.7917 190.63L75.0097 197.248C76.1615 197.906 77.4651 198.252 78.7917 198.252C80.1182 198.252 81.4218 197.906 82.5737 197.248L78.7917 190.63ZM75.7823 0.624773L10.797 28.4713L16.775 42.5013L81.7807 14.6446L75.7823 0.624773ZM0 44.8294V114.573H15.25V44.8294H0ZM34.5768 174.149L75.0097 197.248L82.5737 184.011L42.1408 160.902L34.5768 174.149ZM82.5737 197.248L123.007 174.149L115.442 160.902L75.0097 184.011L82.5737 197.248ZM157.583 114.563V44.8396H142.333V114.583L157.583 114.563ZM146.807 28.4814L81.7908 0.624773L75.7925 14.6344L140.798 42.5013L146.807 28.4814ZM157.583 44.8396C157.583 37.7229 153.344 31.2874 146.807 28.4814L140.798 42.5013C141.255 42.6982 141.643 43.0246 141.916 43.4403C142.189 43.8559 142.334 44.3424 142.333 44.8396H157.583ZM123.007 174.149C133.509 168.148 142.239 159.476 148.311 149.014C154.384 138.551 157.582 126.67 157.583 114.573H142.333C142.331 123.98 139.843 133.219 135.121 141.355C130.399 149.491 123.61 156.235 115.442 160.902L123.007 174.149ZM0 114.573C0.00108549 126.67 3.19976 138.551 9.27191 149.014C15.3441 159.476 24.0739 168.148 34.5768 174.149L42.1408 160.902C33.972 156.234 27.1823 149.489 22.4599 141.351C17.7375 133.213 15.2502 123.971 15.25 114.563L0 114.573ZM10.7767 28.4713C7.5783 29.8435 4.85263 32.1237 2.93714 35.0294C1.02165 37.9352 0.000455117 41.3491 0 44.8294H15.25C15.25 43.8128 15.86 42.8876 16.7953 42.4809L10.7767 28.4713Z" fill="#DD2B1C" fill-opacity="0.1"/>
<path d="M109.292 78.7969L68.6253 119.464L48.292 99.1302" stroke="#DD2B1C" stroke-opacity="0.1" stroke-width="10" stroke-linecap="round" stroke-linejoin="round"/>
</svg>
