<svg width="55" height="69" viewBox="0 0 55 69" fill="none" xmlns="http://www.w3.org/2000/svg">
<path d="M27.125 2.62659L28.1575 0.211585C27.8312 0.0719788 27.4799 0 27.125 0C26.7701 0 26.4188 0.0719788 26.0925 0.211585L27.125 2.62659ZM27.125 65.6266L25.823 67.9051C26.2195 68.1316 26.6683 68.2507 27.125 68.2507C27.5817 68.2507 28.0305 68.1316 28.427 67.9051L27.125 65.6266ZM26.089 0.215086L3.717 9.80159L5.775 14.6316L28.154 5.04159L26.089 0.215086ZM0 15.4331V39.4431H5.25V15.4331H0ZM11.9035 59.9531L25.823 67.9051L28.427 63.3481L14.5075 55.3926L11.9035 59.9531ZM28.427 67.9051L42.3465 59.9531L39.7425 55.3926L25.823 63.3481L28.427 67.9051ZM54.25 39.4396V15.4366H49V39.4466L54.25 39.4396ZM50.54 9.80509L28.1575 0.215086L26.0925 5.03808L48.4715 14.6316L50.54 9.80509ZM54.25 15.4366C54.25 12.9866 52.7905 10.7711 50.54 9.80509L48.4715 14.6316C48.6287 14.6994 48.7625 14.8118 48.8565 14.9548C48.9504 15.0979 49.0003 15.2654 49 15.4366H54.25ZM42.3465 59.9531C45.9623 57.8869 48.9676 54.9016 51.058 51.2998C53.1484 47.698 54.2496 43.6076 54.25 39.4431H49C48.9993 42.6816 48.1427 45.8624 46.517 48.6633C44.8913 51.4642 42.5542 53.7857 39.7425 55.3926L42.3465 59.9531ZM0 39.4431C0.000373694 43.6076 1.10156 47.698 3.19197 51.2998C5.28238 54.9016 8.28773 57.8869 11.9035 59.9531L14.5075 55.3926C11.6953 53.7854 9.35785 51.4633 7.73211 48.6618C6.10637 45.8602 5.25008 42.6787 5.25 39.4396L0 39.4431ZM3.71 9.80159C2.60892 10.274 1.67058 11.059 1.01115 12.0593C0.351715 13.0597 0.00015668 14.2349 0 15.4331H5.25C5.25 15.0831 5.46 14.7646 5.782 14.6246L3.71 9.80159Z" fill="#DD2B1C"/>
<path d="M37.625 27.125L23.625 41.125L16.625 34.125" stroke="#DD2B1C" stroke-width="4" stroke-linecap="round" stroke-linejoin="round"/>
</svg>
