<svg width="74" height="74" viewBox="0 0 74 74" fill="none" xmlns="http://www.w3.org/2000/svg">
<path d="M47.5 72L49.3865 63.628C50.1721 60.1501 51.9272 56.966 54.4484 54.4449C56.9696 51.9237 60.1536 50.1686 63.6315 49.383L72 47.5L63.628 45.6135C60.1501 44.8279 56.966 43.0728 54.4449 40.5516C51.9237 38.0305 50.1686 34.8464 49.383 31.3685L47.5 23L45.6135 31.372C44.8279 34.8499 43.0728 38.034 40.5516 40.5551C38.0305 43.0763 34.8464 44.8314 31.3685 45.617L23 47.5L31.372 49.3865C34.8499 50.1721 38.034 51.9272 40.5551 54.4484C43.0763 56.9695 44.8314 60.1536 45.617 63.6315L47.5 72ZM19.5 37L20.8475 31.022C21.4087 28.5379 22.6623 26.2638 24.463 24.463C26.2638 22.6623 28.5379 21.4087 31.022 20.8475L37 19.5L31.022 18.1525C28.5379 17.5913 26.2638 16.3377 24.463 14.537C22.6623 12.7362 21.4087 10.4621 20.8475 7.978L19.5 2L18.1525 7.978C17.5913 10.4621 16.3377 12.7362 14.537 14.537C12.7362 16.3377 10.4621 17.5913 7.978 18.1525L2 19.5L7.978 20.8475C10.4621 21.4087 12.7362 22.6623 14.537 24.463C16.3377 26.2638 17.5913 28.5379 18.1525 31.022L19.5 37Z" stroke="#DD2B1C" stroke-width="4" stroke-linejoin="round"/>
</svg>
