<svg width="217" height="217" viewBox="0 0 217 217" fill="none" xmlns="http://www.w3.org/2000/svg">
<path d="M138.667 209.832L144.146 185.513C146.428 175.411 151.527 166.162 158.85 158.839C166.173 151.515 175.422 146.417 185.525 144.135L209.833 138.665L185.515 133.186C175.412 130.904 166.163 125.806 158.84 118.482C151.516 111.159 146.418 101.91 144.136 91.8072L138.667 67.4987L133.187 91.8174C130.905 101.92 125.807 111.169 118.483 118.492C111.16 125.816 101.911 130.914 91.8085 133.196L67.5 138.665L91.8187 144.145C101.921 146.427 111.17 151.525 118.494 158.849C125.817 166.172 130.915 175.421 133.197 185.524L138.667 209.832ZM57.3333 108.165L61.2475 90.8007C62.8776 83.5851 66.519 76.9792 71.7497 71.7484C76.9805 66.5177 83.5864 62.8763 90.802 61.2462L108.167 57.332L90.802 53.4179C83.5864 51.7878 76.9805 48.1464 71.7497 42.9157C66.519 37.6849 62.8776 31.079 61.2475 23.8634L57.3333 6.49871L53.4192 23.8634C51.7891 31.079 48.1477 37.6849 42.9169 42.9157C37.6862 48.1464 31.0802 51.7878 23.8647 53.4179L6.5 57.332L23.8647 61.2462C31.0802 62.8763 37.6862 66.5177 42.9169 71.7484C48.1477 76.9792 51.7891 83.5851 53.4192 90.8007L57.3333 108.165Z" stroke="#DD2B1C" stroke-opacity="0.1" stroke-width="13" stroke-linejoin="round"/>
</svg>
