<svg width="17" height="17" viewBox="0 0 17 17" fill="none" xmlns="http://www.w3.org/2000/svg">
<path d="M0.5 8.29297C0.5 10.3598 1.32104 12.342 2.78251 13.8034C4.24397 15.2649 6.22614 16.0859 8.29297 16.0859C10.3598 16.0859 12.342 15.2649 13.8034 13.8034C15.2649 12.342 16.0859 10.3598 16.0859 8.29297C16.0859 6.22614 15.2649 4.24397 13.8034 2.78251C12.342 1.32104 10.3598 0.5 8.29297 0.5C6.22614 0.5 4.24397 1.32104 2.78251 2.78251C1.32104 4.24397 0.5 6.22614 0.5 8.29297Z" stroke="white" stroke-linejoin="round"/>
<path d="M4.95312 8.29297C4.95313 6.22614 5.305 4.24397 5.93134 2.78251C6.55768 1.32104 7.40719 0.5 8.29297 0.5C9.17875 0.5 10.0283 1.32104 10.6546 2.78251C11.2809 4.24397 11.6328 6.22614 11.6328 8.29297C11.6328 10.3598 11.2809 12.342 10.6546 13.8034C10.0283 15.2649 9.17875 16.0859 8.29297 16.0859C7.40719 16.0859 6.55768 15.2649 5.93134 13.8034C5.305 12.342 4.95313 10.3598 4.95312 8.29297Z" stroke="white" stroke-linejoin="round"/>
<path d="M1.05664 10.8906H15.5293" stroke="white" stroke-linecap="round"/>
<path d="M1.05664 5.69531H15.5293" stroke="white" stroke-linecap="round"/>
</svg>
