<svg width="165" height="72" viewBox="0 0 165 72" fill="none" xmlns="http://www.w3.org/2000/svg">
<path d="M20.416 9.0268H15.1345L10.2752 22.3686L5.4547 9.0268H0L7.35594 27.6568H13.1371L20.416 9.0268ZM15.4418 43.942C12.9449 43.942 11.1973 44.9215 9.9871 46.3877V35.408H4.99373V63.065H9.89118V61.0098C11.1014 62.4824 12.8874 63.5194 15.461 63.5194C20.5892 63.5194 24.4688 59.3069 24.4688 53.7307C24.4688 48.1545 20.5892 43.942 15.4418 43.942ZM14.52 48.6153C17.4779 48.6153 19.3214 50.8946 19.3214 53.7307C19.3214 56.5669 17.4777 58.8461 14.52 58.8461C11.6775 58.8461 9.73752 56.663 9.73752 53.7307C9.73752 50.7985 11.6775 48.6153 14.52 48.6153ZM38.6364 43.942C36.3507 43.942 34.5648 44.7293 33.3929 46.4837V44.435H28.5274V63.065H33.5464V52.9115C33.5464 50.1521 35.1407 48.731 37.4647 48.731C38.4826 48.731 39.6732 48.9613 40.4993 49.3262L41.2482 44.3453C40.5568 44.0957 39.7118 43.942 38.6364 43.942ZM62.3754 44.435H57.4712V46.4902C56.2422 44.9793 54.4494 43.9422 51.895 43.9422C46.7608 43.9422 42.8744 48.1547 42.8744 53.7309C42.8744 59.3071 46.7608 63.5196 51.895 63.5196C54.4494 63.5196 56.2615 62.4825 57.4712 60.978V63.0652H62.3754V44.435ZM52.8171 48.6155C55.6849 48.6155 57.6249 50.7986 57.6249 53.7309C57.6249 56.6632 55.6849 58.8463 52.8171 58.8463C49.8721 58.8463 48.009 56.5671 48.009 53.7309C48.009 50.8947 49.8721 48.6155 52.8171 48.6155ZM77.9769 43.9422C75.8641 43.9422 73.822 44.6528 72.4967 46.6375V44.4352H67.612V63.0652H72.6309V52.8539C72.6309 50.0561 74.4237 48.6539 76.5748 48.6539C78.8665 48.6539 80.2112 50.1329 80.2112 52.8218V63.065H85.2302V51.2083C85.2302 46.8871 82.2086 43.9422 77.9769 43.9422ZM98.1817 43.9422C93.0475 43.9422 89.1611 48.1547 89.1611 53.7309C89.1611 59.3071 93.0475 63.5196 98.1817 63.5196C100.736 63.5196 102.548 62.4825 103.758 60.978V63.0652H108.662V35.4082H103.662V46.3879C102.452 44.9217 100.679 43.9422 98.1817 43.9422ZM99.1038 48.6155C101.972 48.6155 103.912 50.805 103.912 53.7437C103.912 56.663 101.972 58.8463 99.1038 58.8463C96.1588 58.8463 94.2957 56.5671 94.2957 53.7309C94.2957 50.8947 96.1588 48.6155 99.1038 48.6155ZM118.918 44.435H113.899V63.065H118.918V44.435ZM116.389 35.1392C114.584 35.1392 113.201 36.5607 113.201 38.3658C113.201 40.1713 114.584 41.5541 116.389 41.5541C118.194 41.5541 119.597 40.1713 119.597 38.3658C119.597 36.5607 118.194 35.1392 116.389 35.1392ZM134.539 43.9422C132.426 43.9422 130.384 44.6528 129.059 46.6375V44.4352H124.174V63.0652H129.193V52.8539C129.193 50.0561 130.986 48.6539 133.137 48.6539C135.429 48.6539 136.773 50.1329 136.773 52.8218V63.065H141.792V51.2083C141.792 46.8871 138.771 43.9422 134.539 43.9422ZM154.321 43.9358C149.789 43.9358 145.755 47.7193 145.755 53.4493C145.755 59.1664 149.789 62.9501 154.321 62.9501C156.895 62.9501 158.777 61.99 160.045 60.434V61.7402C160.045 64.9476 157.855 66.6824 154.744 66.6824C152.516 66.6824 150.461 66.0102 148.598 64.7748L146.812 68.872C148.905 70.357 152.017 71.1256 154.955 71.1256C161.101 71.1256 165 67.5082 165 61.529V44.4353H160.083V46.5162C158.816 44.9347 156.914 43.9358 154.321 43.9358ZM155.589 48.5451C158.374 48.5451 160.256 50.658 160.256 53.4493C160.256 56.2279 158.374 58.3408 155.589 58.3408C152.727 58.3408 150.903 56.1512 150.903 53.4493C150.903 50.7349 152.727 48.5451 155.589 48.5451ZM31.6519 8.53403C26.0759 8.53403 22.2281 12.5353 22.2281 18.3996C22.2281 24.2384 26.1911 28.118 31.9016 28.118C35.0387 28.118 37.7212 27.2346 39.8276 25.2946L36.8954 22.0744C35.5574 23.2077 33.8096 23.8543 32.1899 23.8543C29.8275 23.8543 27.9387 22.689 27.401 20.0131H40.5957C40.6533 19.5903 40.6918 18.899 40.6918 18.3229C40.6726 12.5161 37.0105 8.53403 31.6519 8.53403ZM31.6135 12.8618C33.7711 12.8618 35.2117 14.2129 35.6727 16.5945H27.4202C27.862 14.2896 29.2449 12.8618 31.6135 12.8618ZM49.7955 0H44.7766V27.657H49.7955V0ZM73.1949 9.02697H67.9134L63.0542 22.3687L58.2336 9.02697H52.7789L60.1349 27.657H65.9161L73.1949 9.02697ZM83.8926 8.53403C78.3166 8.53403 74.4688 12.5353 74.4688 18.3996C74.4688 24.2384 78.4318 28.118 84.1423 28.118C87.2794 28.118 89.9619 27.2346 92.0683 25.2946L89.1361 22.0744C87.7981 23.2077 86.0503 23.8543 84.4307 23.8543C82.0683 23.8543 80.1794 22.689 79.6417 20.0131H92.8364C92.894 19.5903 92.9325 18.899 92.9325 18.3229C92.9133 12.5161 89.2512 8.53403 83.8926 8.53403ZM83.8542 12.8618C86.0118 12.8618 87.4524 14.2129 87.9134 16.5945H79.6609C80.1027 14.2896 81.4856 12.8618 83.8542 12.8618ZM110.352 9.02697H103.611V3.49554H98.5919V9.02697H95.0004V13.483H98.5919V20.6725C98.5919 25.493 100.954 28.1116 105.57 28.1116C108.22 28.1116 110.103 27.2666 111.735 26.1528L109.892 22.2281C108.874 22.8427 107.587 23.4383 106.396 23.4383C104.84 23.4383 103.611 22.5929 103.611 20.2693V13.4832H110.352L110.352 9.02697Z" fill="#F6F6F6"/>
</svg>
