<svg width="197" height="196" viewBox="0 0 197 196" fill="none" xmlns="http://www.w3.org/2000/svg">
<path d="M26.8333 98C36.6224 90.6582 48.7313 87.0938 60.9369 87.9612C73.1424 88.8286 84.6255 94.0697 93.2779 102.722C101.93 111.374 107.171 122.858 108.039 135.063C108.906 147.269 105.342 159.378 98 169.167M26.8333 98C20.52 102.735 15.3959 108.875 11.8666 115.933C8.33739 122.992 6.50001 130.775 6.50001 138.667C6.49675 143.778 7.26449 148.861 8.77734 153.744C11.5427 162.69 9.55001 172.654 7.77084 182.048C7.61307 182.851 7.66506 183.681 7.92177 184.458C8.17849 185.235 8.63126 185.932 9.23633 186.483C9.84141 187.034 10.5784 187.42 11.3759 187.603C12.1735 187.786 13.0048 187.76 13.7895 187.528C22.4108 185.169 30.9813 183.156 39.7857 186.389C45.4061 188.451 51.3466 189.504 57.3333 189.5C65.2264 189.508 73.0123 187.674 80.0721 184.144C87.1318 180.614 93.2705 175.486 98 169.167M26.8333 98C26.8333 50.3692 56.0625 6.5 108.167 6.5C121.21 6.49773 134.063 9.63248 145.64 15.6398C157.218 21.6471 167.181 30.3508 174.689 41.0167C182.197 51.6825 187.029 63.9976 188.779 76.9231C190.529 89.8486 189.144 103.005 184.742 115.283C179.903 128.764 185.118 146.82 188.168 161.725C188.346 162.518 188.309 163.345 188.062 164.12C187.815 164.894 187.367 165.59 186.762 166.134C186.158 166.678 185.42 167.052 184.624 167.217C183.827 167.382 183.002 167.332 182.231 167.072C168.892 162.904 153.236 157.048 140.7 162.335C127.138 168.048 112.884 169.167 98 169.167" stroke="#DD2B1C" stroke-opacity="0.1" stroke-width="13" stroke-linecap="round" stroke-linejoin="round"/>
</svg>
