<svg width="183" height="224" viewBox="0 0 183 224" fill="none" xmlns="http://www.w3.org/2000/svg">
<path d="M162.667 20.3333H120.17C115.9 8.54 104.717 0 91.5 0C78.2833 0 67.1 8.54 62.83 20.3333H20.3333C9.15 20.3333 0 29.4833 0 40.6667V203.333C0 214.517 9.15 223.667 20.3333 223.667H162.667C173.85 223.667 183 214.517 183 203.333V40.6667C183 29.4833 173.85 20.3333 162.667 20.3333ZM91.5 20.3333C97.0917 20.3333 101.667 24.9083 101.667 30.5C101.667 36.0917 97.0917 40.6667 91.5 40.6667C85.9083 40.6667 81.3333 36.0917 81.3333 30.5C81.3333 24.9083 85.9083 20.3333 91.5 20.3333ZM162.667 203.333H20.3333V40.6667H40.6667V71.1667H142.333V40.6667H162.667V203.333Z" fill="#DD2B1C" fill-opacity="0.1"/>
</svg>
