<svg width="69" height="69" viewBox="0 0 69 69" fill="none" xmlns="http://www.w3.org/2000/svg">
<path d="M10 34.5C13.37 31.9725 17.5386 30.7454 21.7406 31.044C25.9425 31.3426 29.8957 33.1469 32.8744 36.1256C35.8531 39.1043 37.6574 43.0575 37.956 47.2594C38.2546 51.4614 37.0275 55.63 34.5 59M10 34.5C7.82657 36.1301 6.06251 38.2438 4.84753 40.6738C3.63254 43.1037 3 45.7832 3 48.5C2.99888 50.2597 3.26319 52.0096 3.784 53.6905C4.736 56.7705 4.05 60.2005 3.4375 63.4345C3.38319 63.7109 3.40109 63.9967 3.48946 64.2642C3.57784 64.5317 3.73371 64.7718 3.94202 64.9615C4.15032 65.1512 4.40402 65.2839 4.6786 65.3469C4.95319 65.4098 5.23937 65.4009 5.5095 65.321C8.4775 64.509 11.428 63.816 14.459 64.929C16.3939 65.6389 18.439 66.0015 20.5 66C23.2173 66.0027 25.8977 65.3714 28.3281 64.1562C30.7585 62.941 32.8718 61.1754 34.5 59M10 34.5C10 18.1025 20.0625 3 38 3C42.4903 2.99922 46.915 4.07839 50.9007 6.14649C54.8865 8.21459 58.3164 11.2109 60.9011 14.8828C63.4858 18.5546 65.1495 22.7943 65.7518 27.244C66.3542 31.6938 65.8775 36.2231 64.362 40.45C62.696 45.091 64.4915 51.307 65.5415 56.438C65.6027 56.7112 65.5901 56.9957 65.5051 57.2625C65.42 57.5292 65.2656 57.7685 65.0576 57.9559C64.8495 58.1433 64.5954 58.2719 64.3213 58.3287C64.0471 58.3855 63.7628 58.3683 63.4975 58.279C58.9055 56.844 53.5155 54.828 49.2 56.648C44.531 58.615 39.624 59 34.5 59" stroke="#DD2B1C" stroke-width="6" stroke-linecap="round" stroke-linejoin="round"/>
</svg>
